<svg xmlns="http://www.w3.org/2000/svg" width="480" height="74" fill="none"><path fill="#3D3D3F" d="m474.162 71.264-.443.129h-.869l-.339.046h-.565l-.331.045h-.482c-.244 0-.368.05-.708.055-.34.003-.386.074-.801.085-.237.006-.444.053-.641.084-.198.031-.377.07-.51.097h-.698l-1.16.177h-.774c-.34.026-.641.037-.811.065-.17.028-.565.011-.868.036 0 .013-.046.032-.094.063l-.716.103h-.274c-.209.06-.406.123-.622.183-.161.042-.2.097-.519.124-.322.027-.133.083-.416.11-.085.008-.076.038-.112.056l-2.189.335h-4.132l-.216.033s-.075.01-.114.01h-1.734l-.265.042-.312-.037-.31.038h-.558l-.331.047h-3.197l-.301.044c-.33.009-.764 0-1.198 0l-.207.033c-.273.026-.577 0-.877.007l-.368.042c-.37 0-.774.022-1.171-.029-.179-.023-.565-.01-.838-.012l-1.105-.171h-1.962l-.227.035h-1.178l-.377.045h-.877l-.294-.037c-.207.05-.735.026-.857.086h-.813c-.273.021-.546.045-.838.065-.292.02-.641.023-.896.05-.255.027-.661.01-1.001.02l-.319-.043c-.11.014-.216.028-.313.043h-.583l-.567.085-.322-.037h-.941l-.398.085h-.698l-.319.045h-.577l-.358-.05c-.246.017-.5.05-.735.047-.236-.003-.491.032-.737.04l-.234-.034h-.887c-.16.016-.294.048-.585.046-.292-.003-.228.047-.529.04l-.528-.045c-.331.015-.461.058-.755.097h-3.829l-.273.041h-5.586l-.337.046h-1.162l-.329.046h-5.009l-.255.04-.452-.046-.464.042-.462-.044-.461.052h-6.452l-.321.046h-.292l-.246-.038h-2.443l-.225.035h-.653l-.245-.038h-.942l-.312.04h-.878l-.3-.042h-1.728l-.3-.045h-.595l-.292.044c-.163.004-.328.004-.491 0-.207-.009-.395-.035-.614-.042a19.69 19.69 0 0 0-.67 0l-.274-.041h-1.782l-.31.04h-4.104l-.321.046-.216-.032c-.207-.024-.453-.009-.68-.01l-.31.042h-.783l-.492-.049-.641.055-.461-.05h-2.019l-.434.057-.547-.063-.604.045h-.822l-.264-.04h-9.432l-.283-.042h-3.518l-.322-.045-.31.042-.264-.04c-.567-.013-1.199 0-1.821-.008l-.246-.037h-1.121l-.388-.045h-.941l-.455-.097h-.942l-.661-.055c-.274-.028-.31-.034-.349-.034h-7.545l-1.217-.097-.379.05h-1.679l-.471-.056-.452.057h-.283l-.245-.038h-1.539l-.358.046-1.197-.097h-1.056l-.322-.046-.301.043h-.595l-.218-.033c-.376-.031-.687 0-1.008.026a7.57 7.57 0 0 0-.227-.034l-.31.035h-1.151l-.331.046h-.877l-.283-.043c-.652-.007-1.378 0-2.103-.005l-.246-.037h-.668l-.246.037-.322-.04h-2.055l-.303.042h-2.651l-.31-.044h-.576l-.31.044h-.595l-.255-.039h-2.085l-.274.032a4.812 4.812 0 0 0-.402-.03 9.161 9.161 0 0 0-.493-.007l-.322.045h-2.347c-.218-.052-.671-.044-.944-.087-.094-.015-.367 0-.537 0l-.568.086h-3.158l-1.056.097h-1.038l-.538-.043-.452-.041-.246.037-.312-.037-.292.038-.312-.042h-1.479l-.528.083h-1.567c-.415-.04-.397-.13-.84-.171l-.623.089h-.868l-.255.038h-.941l-.313-.036h-.944l-.431.097c-.255-.032-.398-.057-.689-.056-.143 0-.228-.048-.538-.04l-.454.05-.499-.044-.264.033c-.303.008-.68-.01-.886.048h-.887l-.312-.045h-1.415l-.227-.034c-.265-.005-.386.058-.717.036-.328-.021-.386.041-.613.043-.225.002-.48.012-.678-.023-.085-.014-.245-.018-.358-.025l-.37.048h-.866l-.312-.044h-.886l-.255.04c-.671.016-1.406 0-2.122.008l-.246.037h-6.5l-.48-.046-.491.049h-6.121l-.331.046h-1.463l-.319.044c-.066-.01-.133-.03-.209-.03-.613-.007-1.12-.078-1.754-.058l-.829-.071v-.045s-.067-.014-.104-.014h-1.5l-.291.04h-1.199l-.303-.043h-1.773l-.255.039h-2.122l-.377-.048-.641.058-.482-.048h-.537l-.31.042h-2.067l-.198-.03c-.094-.006-.179-.013-.264-.013h-1.594l-.388.052-.583-.048h-1.029l-.377-.046h-.586c-.14-.025-.404-.051-.415-.08 0-.056-.32-.07-.538-.11l-.631.047h-.774l-.301-.035h-1.208l-.255.038h-4.102l-.349.046h-1.169l-.303-.043h-.887l-.206.032c-.085 0-.179.012-.264.012h-1.312l-.331-.043-.245.038h-6.848l-.254-.038h-.897l-.301.042h-.878l-.311-.044-.255.04c-.377.016-.811 0-1.198.007l-.283-.044-.32.038h-1.793c-.141-.006-.235-.058-.566-.04l-.311.043h-1.452l-.321.044-.274-.041c-.358-.009-.792 0-1.188 0l-.274.041-.32-.037h-.585l-.312.04H207l-.321.045-.311-.044c-.406-.012-.623.079-1.217.033l-.377-.038-.5.045h-6.49l-.255-.038-.311.043h-3.528l-.32.03c-.321.016-.444-.024-.613-.043h-.802l-.491.052-.481-.045-.283.037h-1.103l-.472.056-.462-.053h-.576l-.386.051-.519-.044-.283.034h-1.755l-.302-.041h-.282l-.321.045h-2.066l-.217-.032c-.207-.024-.453-.01-.688-.01l-.236.038h-3.453l-.547.053-.632-.054-.462.05h-1.434l-.311-.044h-1.764l-.217.031a4.35 4.35 0 0 1-.264.012h-1.887l-.415-.052-.509.044-.283-.034h-4.716l-.302.041h-2.056l-.217-.03c-.085 0-.17-.013-.255-.013h-3.084l-.217.032a5.971 5.971 0 0 1-.265.011h-2.471l-.264-.04h-1.821l-.245.037-.302-.037-.358.037c-.34.01-.396-.03-.557-.04h-2.065l-.246.037h-.669l-.227-.034h-1.367l-.557-.057-.5.05h-1.99l-.33.047h-.576l-.33-.046h-8.546l-.254-.038h-1.255l-.387.047-.538-.05h-2.009c-.169.01-.264.06-.584.042l-.312-.045h-.877l-.302.045c-.33.017-.424-.032-.717-.049l-.481.04-.264-.032-.311.04h-.868l-.604-.087c-.33-.018-.424.032-.641.043h-.755l-.5.05-.632-.055-.462.05h-.83l-.321.044h-.886l-.208-.032c-.273-.023-.566-.007-.943-.012-.283-.025-.585-.07-1.094-.025-.04.008-.088.015-.142.022l-.302-.038-.311.04h-1.16l-.292.051h-1.745l-.387.052-.557-.046-.226.035h-1.236l-.443-.105-.651.105h-2.971l-.302.044-.302-.036h-2.113l-.255.038h-2.018l-.33.047h-.613l-.368-.052-.566.04-.293-.033h-2.028l-.283-.042H94.77l-.358-.048c-.17 0-.387.008-.548 0-.16-.008-.34-.043-.622-.047-.283-.005-.35-.049-.594-.086h-1.415l-.359.043c-.49.039-.877-.073-1.556-.027l-.208.028h-.613l-.433-.076v-.173c-.085-.011-.123-.018-.161-.019a14.276 14.276 0 0 0-.32 0l-.19-.082-1.018-.007c0-.022-.057-.043-.104-.07-.047-.029-.405-.01-.632-.017-.075.008-.198.015-.207.026-.15.096-.555.185-1.17.259v.115l-.783.007-.406.097c-.396-.065-1.009-.054-1.15-.138a.223.223 0 0 1 .075-.04c.055-.011.125-.022.208-.031-.368-.092-1.142-.09-1.67-.165l-.547.107-.623-.05c-.122 0-.16.035-.367.051 0 .031-.02.067-.057.108-.131.007-.267.013-.406.017-.093.048-.304.093-.613.13h-.67l-.179-.084c-.066-.021-.349 0-.556-.006a10.09 10.09 0 0 1-.444-.038l-.235.036h-.651l-.49-.097-.321.049h-.944l-.141.134h-1.104c0-.04-.075-.082-.15-.16l-.482.119h-1.31c-.303.026-.142.067-.209.122l-.603.057h-.142c-.254-.045-.066-.097-.113-.15-.047-.052-.537-.05-.245-.113h-1.141l-.34.087h-.783l-.302-.044h-4.433l-.217.032c-.217.022-.453.01-.689.009l-.547-.084-.32.04h-.576l-.311-.043h-.868l-.32-.043-.208.032s-.075.01-.113.01H56.35l-.396.05-.632-.047v.113c-.255.04-.538 0-.83.03 0-.074 0-.124-.057-.172-.33-.04-.689 0-.943-.023l-.35.05h-.575c-.245.03-.094.07-.132.097l-.415.087-.32-.048h-.944l-.405-.097h-1.085c-.557.07-1.358.076-1.745.178-.481-.022-.792.043-1.217.046-.594.102-1.113.02-1.613-.021-.3-.033-.554-.07-.755-.11h-.415a11.7 11.7 0 0 0-.302.011v.105c-.197.036-.471.006-.67.021l-.725-.104c-.218.032-.416.063-.66.097-.34 0-.444-.06-.737-.09l-.81.12v.077c-.123.034-.303.035-.5.022-.118-.049-.15-.1-.095-.15-.245-.04-.528-.021-.84-.012 0 .019 0 .04-.085.063-.273.042-.65 0-.943.023l-.368-.05h-2.31c-.293.032-.463.09-.944.096-.18 0-.443.086-.707.178 0 .012-.085.024-.123.037l-1.028.007c0 .059 0 .109-.047.157-.227.034-.49.01-.717.018l-.32-.046h-1.737l-.254-.038h-.802l-.547-.057-.481.045-.283-.037h-2.905l-.33-.046h-.69l-.575-.09h-.292l-.849-.13h-.556a1.717 1.717 0 0 0-.17-.076c-.198-.033-.462 0-.943-.041l-1.887-.15h-.707c-.255-.015-.34-.07-.651-.043l-.434-.128.556-.044v-.08c-.179-.038-.443-.016-.679-.022-.066-.008-.17-.014-.217-.025-.41-.09-.711-.184-.896-.281a3.662 3.662 0 0 0-.575-.187v-.09c-.266-.06-.45-.123-.547-.188 0-.065-.378-.097-.368-.16-.038-.053-.193-.104-.453-.149-.226-.048.104-.126-.396-.155.066-.06-.425-.097-.32-.161 0-.026-.199-.061-.265-.097-.066-.036 0-.06-.15-.08-.152-.02-.161-.052-.152-.081.045-.042-.045-.084-.255-.12-.132-.02-.066-.07-.122-.103a1.729 1.729 0 0 0-.208-.033v-.134a1.445 1.445 0 0 1-.198-.034 4.523 4.523 0 0 0-.622-.185c-.057-.02-.082-.042-.076-.063 0-.014 0-.034-.047-.041a3.248 3.248 0 0 1-.585-.142c-.262-.05-.368-.106-.302-.162-.349-.031-.367-.096-.566-.144-.301-.067-.409-.142-.31-.215l-.284-.043v-.174l-.302-.054v-.084l-.301-.05v-.133c-.415-.06-.444-.155-.84-.217-.093-.088-.306-.175-.632-.258v-.154l-.302-.05v-.225l-.179-.025c-.066-.01-.123-.016-.123-.022v-.311l-.273-.042v-.269l-.293-.043v-.263l-.301-.056v-.127l-.302-.053v-.175l-.312-.046v-.223l-.283-.042c-.066-.084 0-.18 0-.275l-.283-.042v-.359l-.32-.047v-.273l-.312-.047v-.224l-.216-.04v-.94l-.302-.05v-.088l.283-.047c.122-.05-.217-.063-.312-.108l.293-.16V63.11l-.255-.038v-.13l.274-.047v-.67c-.34-.033-.283-.103-.566-.145-.095-.014 0-.056 0-.082l.264-.04v-.542l-.236-.046v-1.22l.255-.04v-.31l.302-.051v-.582l-.33-.054.094-.033c.188-.042.236-.048.236-.055a.038.038 0 0 0 0-.044v-.56a.018.018 0 0 1 0-.022l.245-.037-.255-.049v-.345l-.377-.08.358-.074v-.128l-.283-.047.217-.034c.08-.048.08-.097 0-.146l-.236-.046.255-.038v-.4c-.17-.046-.349-.098-.575-.153v-.291l.556-.155v-.402l-.254-.039v-.224l-.312-.043V54.63l-.283-.04v-.27l.283-.047v-.717l.293-.046v-.089l-.274-.046v-1.078l.255-.038v-.233l-.255-.038v-.27l.274-.047v-.13l.368-.07-.35-.072v-.089l.246-.038v-.097l-.227-.036v-.419l.246-.037v-.361l-.264-.046v-.042l.292-.049v-.178l-.217-.032a.19.19 0 0 1-.075-.04v-.467c.084-.014.16-.025.264-.04v-.763l-.302-.071.311-.076v-.08l-.264-.046.274-.047v-.224l-.217-.033c-.087-.034-.103-.07-.048-.105l.246-.036v-.587c0-.007-.132-.023-.236-.045v-.14l.254-.038v-.49l-.282-.046v-.089l.282-.047-.207-.032c-.04-.013-.065-.026-.075-.04v-.375l.264-.041V45.8c-.367-.07-.56-.148-.566-.227l.292-.049V44.36l-.198-.028a.278.278 0 0 1-.085-.04V44l.264-.04v-.369l-.236-.036.255-.048v-.176l-.575-.152v-.216l.217-.031c.098-.05.12-.1.066-.15l-.293-.035v-.502l.312-.058-.312-.078v-1.033l.246-.038-.283-.048v-.401l-.246-.051.246-.038v-.9c0-.008-.114-.024-.227-.047v-.097l.245-.038v-.18L.66 39.19v-.043c0-.015.189-.032.293-.047v-.627l-.34-.057.311-.097v-.11l-.301-.07.31-.077v-.798l-.273-.048v-.22l-.302-.047v-.088l.302-.051v-.266l.255-.038v-.14l-.245-.036v-.177L.368 36.1v-.084l-.302-.05.292-.048v-.132l.557-.085v-.18c-.36-.067-.555-.143-.566-.22l-.283-.048c-.032-.016-.022-.033.029-.05a1.46 1.46 0 0 1 .263-.04v-.09l.274-.046v-.272c-.34-.027-.236-.077-.292-.119-.08-.03-.194-.06-.34-.087l.34-.06v-.22l.594-.097v-.267c-.104-.02-.293-.04-.274-.053.151-.083-.556-.142-.254-.226l.264-.039v-.18l.273-.046v-.09l-.575-.091v-.27c.085-.013.189-.021.217-.034.113-.052 0-.115.368-.156v-.257L.67 32.42v-.36l.273-.047v-.13l.302-.05v-.179l.264-.039v-.097l.245-.035v-.486l.293-.058v-.184l-.255-.039v-.175l-.302-.052v-.038l.283-.047v-.137l-.273-.046V29.9c.462-.034.5-.119.858-.172v-.22l.302-.05v-.453l-.49-.026c0-.005-.085-.01-.085-.016v-.357l.217-.033a.296.296 0 0 0 .075-.018v-.453c0-.014.255-.01.415-.017l.415-.121v-.254l-.264-.047v-.084l-.302-.05v-.226l.557-.08v-.238l-.538-.081c-.028-.02-.028-.041 0-.061.15-.058.349-.114.575-.189v-.157l-.283-.046v-.088l.312-.054c0-.02-.085-.04-.132-.06l-.34.045-.434-.065v-.09l.293-.047v-.088l-.293-.047c-.113-.05.217-.064.274-.088v-.097l-.255-.038v-.326l.868-.097v-.342l.217-.033c.1-.05.118-.1.056-.15l-.245-.036v-.137l.217-.042c0-.037.198-.081-.141-.116l-.199.084h-.367c-.057-.008-.123-.013-.123-.02v-.662l-.302-.051.208-.031a.177.177 0 0 0 .075-.04v-.376l-.575-.087.264-.049v-.357l-.274-.046v-.133l.293-.05v-.071l.48-.125.454-.015-.321-.08.32-.074v-.388l.312-.05c.104-.045-.17-.064-.302-.098v-.131l-.528-.076c-.18-.04.198-.113-.368-.131l.302-.056-.302-.05a.744.744 0 0 1 .132-.056c.057-.018.15-.034.236-.054l-.33-.07v-.096l.396-.02.424-.123v-.171l-.575-.059v-.339l-.528-.08c-.198-.06.085-.104.207-.157.123-.052-.066-.105.396-.125l-.67-.189v-.122l.274-.04v-.143l.576-.087v-.27l.273-.041v-.27l-.273-.047v-.042c-.399-.02-.71-.055-.878-.097-.103-.047.18-.066.283-.097-.056-.065-.528-.112-.217-.19.312.017.604.064 1.038.025l.075-.05-.603-.096c.018-.076.212-.15.566-.217v-.15l-.944-.118.368-.12v-.154l.264-.04c.085-.04.055-.083-.085-.122-.323-.059-.48-.126-.452-.194.39-.021.7-.055.886-.097v-.128l.312-.052v-.22l.226-.034c.245-.07-.15-.121-.264-.18-.113-.058-.538-.072-.868-.096v-.09l-.292-.046c-.113-.05.217-.064.311-.106l-.311-.118.717-.078-.632-.103v-.136l.245-.037-.302-.072.32-.076v-.08l-.263-.046.556-.09c.104-.05-.18-.068-.273-.097 0-.07.377-.085.575-.13v-.085l.311-.052-.773-.11a.372.372 0 0 1-.085-.027v-.43l.273-.052c.024-.02.024-.039 0-.058-.113-.05-.273-.097-.424-.145l-.302.046a5.34 5.34 0 0 1-.368-.057 3.053 3.053 0 0 1-.368-.134c-.022-.023-.022-.046 0-.069L2 13.773c.302-.043.047-.073-.17-.106v-.223c.33-.033.245-.107.585-.141v-.222l.273-.041v-.36l.283-.043v-.277l-.245-.038v-.172c-.207-.034-.345-.073-.406-.113l-.433-.018c-.217-.03 0-.071-.114-.102l.293-.045v-.087c0-.027.226-.053.34-.077l-.33-.064v-.453l.254-.038-.274-.048v-.178l.283-.046v-.18l-.264-.04v-.096l-.188-.041v-.448l-.576-.087c-.071-.052-.049-.105.066-.157l.406.032c.207-.047 0-.097.085-.134L.66 9.384V9.28L.066 9.12v-.216l.245-.038c.113-.089 0-.185.066-.28l.264-.039V7.87c.359-.04.717-.006 1.01-.025l.603.091.66.006.34-.08c-.32-.063-.943-.071-1.31-.147C1.065 7.694 1 7.568.527 7.47l.764-.069h.387l.32.043c0-.015.095-.027.123-.04.142-.057-.198-.092-.301-.138-.135-.07-.425-.137-.85-.194v-.143l.255-.04v-.13l.302-.051v-.308l-.207-.039c-.096-.048-.124-.098-.085-.147l-.208-.032a.22.22 0 0 1-.085-.04v-.194l.264-.04v-.263l.33-.065v-.847l.274-.042v-.624l.311-.052v-.176l.595-.097v-.154l.443-.13c.141-.043.5-.034.707-.063a.02.02 0 0 0 0-.02v-.175l.83-.088.67-.205v-.107c.227-.038.5-.005.736-.026.123-.06.556-.11.377-.2.208-.028.425-.058.651-.086.18-.028.294-.06.33-.092.105-.038.24-.074.406-.109h.32c.168-.027.301-.055.397-.085.018-.02.075-.038.168-.055.093-.016.218-.031.37-.042.367-.029.745-.055 1.226-.09h.433c.453-.03.425-.112.746-.156.32-.043.566-.083.886-.132 0-.044 0-.097.047-.15l.434-.016c.463-.07-.141-.125-.17-.193l.416-.067.33.038h.83l.34.045c.216-.048.697-.035.943-.087h1.452l.217-.033c.274-.03.717.015.944-.049l.943.076.273-.038h1.208l.179-.077c0-.004.066-.012.104-.012h1.735c.16-.021.302-.044.425-.067.048-.02.074-.042.075-.063h.764c0 .113.698.121 1.132.174h1.151l.208-.032s.075-.011.113-.011h1.443l.264-.04h1.415l.434-.05h2.01l.31-.048h1.189l.264-.04h2.641l.387-.054.556.048.312-.034h1.716l.425-.052h2.33l.245-.041h1.755l.33-.046h1.754l.217-.031c.076-.01.076-.015.104-.015h2.358l.217-.033c.075-.01.075-.011.113-.011h3.773l.293-.045h2.065l.312-.047h2.952l.283-.045h2.641l.33-.046h.576l.311.043.217-.032s.075-.01.113-.01h3.236l.235-.036h2.132l.227.034h1.254l.245-.037h2.075l.312.042h.575l.311-.043h4.17l.198.086h1.594c0 .026.075.046.122.078l.406.054.293-.037.301.043h.585l.321-.047h1.462l.273-.04h2.35l.282-.044h.944l.292.043h9.433l.264.041h2.367l.302-.043.208.031c0 .005.075.013.113.013h3.226l.255.04h3.188l.396.046h3.773l.358.047h.868l.462-.053.529.062.537-.047.566.085h1.179l.274.042.368-.043h.858l.321-.045.255.039c.575.015 1.207 0 1.82.008l.302.038.538-.081c.301-.02.433.03.622.035.127.003.246.01.348.018.103.008.186.02.246.031h1.481l.265-.04.943-.007.311-.04.292.045h1.764l.274.041h1.188l.302-.042h2.651l.311.043c.321.018.415-.03.585-.042h.603l.255.038h1.236l.245-.038h.849l.396.044c.444-.006.547-.067.821-.09h1.17l.32.042.255-.04h.717c.349-.01.434-.064.764-.046l.321.042h.811l1.122-.097.434.048h2.302l.302-.036h2.99l.245.037h.896l.311-.041h1.745l.331-.046h7.857l.811-.063c.311-.025.462-.07.745-.112.208.01.293.065.604.035l.33.105.755-.055.472.053c.32.03.631-.042 1.122-.051l.453.091h1.886l.406.048c.405-.012.528-.058.82-.092h1.444l.283-.042h2.339l.943.081.34-.047.679.058.613-.097.585.048.453-.05h1.141l.255-.039c.377-.02.811 0 1.207-.009l.585.089h1.255l.311-.085h1.377l.462-.057.472.054h.886l.246-.038h.66l.264.04h1.179l.264.04.491-.05.773.097c0-.023.085-.042.142-.073l.311-.018.236-.02c.126-.01.258-.02.396-.028l.359.047.301-.037h1.161l.622-.09h.566c.292.04.622.096.943.142.538-.032.774-.103 1.132-.14h2.368l.556.084.321-.04h2.707l.302.043h.594l.538-.085h2.434l.377.048.481-.045.462.046.491-.057c.245-.013.358.03.537.046h1.179l.217-.033c.557-.05.944.056 1.576.03l.433.097h2.189l.311-.043h.576l.311.043h1.462l.321-.04c.245.03.386.072.754.09l.453-.048h1.132l.311.044h.585l.207-.032c.321-.027.67 0 .944-.014l.339.044.255-.039h3.207l.717-.097c.406 0 .519.053.745.079 0 0 .076.011.123.011h1.415l.396-.05 1.132.088c.132-.013.274-.043.556-.04.142 0 .217-.048.548-.04l.377.04c.415.013.943-.006 1.452.006l.388.05.546-.05h4.084c.16.007.236.062.661.028l.225-.03h3.53l.368-.053.64.046h3.774l.225-.035h1.105c.434-.054 1.019-.063 1.254-.136.339-.02.461.024.67.043h.838l.313.041h2.368l.255-.038h.895c.14-.025.416-.05.434-.077 0-.055.301-.073.471-.106h.877l.34.047.198-.085.68-.012c.264-.038.448-.082.537-.127h.604l.301.04.312-.043h.574l.219-.032c.085 0 .17-.012.264-.012h1.518c.301.03.615.057.944.082.282.022.698-.011.944.05h.847c.643.074 1.038.167 1.123.266.68-.011 1.169.086 1.792.05.255.01.349.062.679.045l.313-.044h.866l.321-.044.207.032c.321.026.661 0 1.02.017l.121-.078.349-.023c.398.087 1.151.097 1.521.188l.556-.084.631.047c.179-.04.34-.077.443-.097h.747l.31.045c.622.009.631-.082.944-.15.076.087 0 .154.046.219l.434.065h.886l.671-.097.556.047.209-.03 1.026.08c.407.004.813.004 1.218 0-.131-.039-.216-.068-.322-.096l.425-.07c.303.01.406.054.643.08l.358-.047.149.13.455.012.14-.125c.471-.045.556.036.832.049V.57l.781.061.831-.175.565.086h1.245l.255-.038.321.044.273-.09h.322l.547.084.31-.038.312.04h1.151c.096-.048.314-.094.631-.13.296.035.48.08.528.127h4.141c.529-.055 1.284-.082 1.436-.207.216-.024.461-.01.725-.01.03.026.095.051.189.076a.77.77 0 0 1 .177.039c.032.014.036.029.011.043.182.007.354.016.51.028.152.018.273.043.528.033l.604-.086.207.032c.094 0 .179.011.264.011h4.235l.407-.052.565.05h.81l.303-.04h.586l.301.041h.868l.34.049c.671-.033 1.199-.091 1.479-.162l.142-.075.34.047.31-.044c.407-.011.625.079 1.068.045.283.022.538.054.942.046.406-.003.813-.003 1.217 0l.312.038.49-.045.461.052h.841l.321.044.244-.038c.126-.003.252-.005.379-.006h.489l.388-.045h8.877c.115-.066.404-.129.838-.18h1.178l.285-.042c.356-.004.716-.004 1.075 0 .193.016.399.03.613.043.448.023.868.052 1.245.085a1 1 0 0 1 .17.034c.016.016.016.033 0 .049l.434.017.282.04h3.236l.301.043c.322.014.443-.027.689-.05l.613.053h6.387l.274.041h3.518l.328.046.313-.043h.868l.34.046h1.451l.255.04.313-.037.31.038h3.491l.339.047h2.642l.328.046h2.632l.312.04.31-.037.255.038.303-.038.311.04h2.358l.179.03c.34.028.689.009 1.009.018l.209.032c.33.024.668 0 .941.012l.285-.042.319.038h3.509l1.002-.087h2.565l.17.027c.064.01.103.017.14.017h3.528l.273.042h1.746l.443.056.501-.047.291.037h3.509c.228.052.717.04.944.09h4.029l1.093-.089h3.424l.274-.042h8.488c.264-.014.349-.068.765-.034l.227.031h.574l.313-.042h12.11l.255.038h2.425l.246-.037.319.04h6.782l.312-.042h14.412l1.01.09h.699c.443.039.999.052 1.244.134.492-.026.802.042 1.199.047l.338-.046.209.03c.319.027.659 0 1.017.018 0-.023.085-.046.124-.07.48-.033.857-.08 1.084-.134l.528.058c.207-.05.689-.038.944-.086.386.004.614-.077 1.057-.045l1.038-.088h1.376l.33-.046h3.831l.319.046h.586c.207.057.583.038.942.05 0 .017.066.037.115.067.045.03.404.007.622.018.216.01.31.038.471.04.142.003.271.011.372.022.099.01.163.025.186.04.094.063.517.096.613.14.106.044.294.086.556.123.273.044.556.085.726.11.944.052 1.254.17 1.887.24h.538l.328.046h1.764c.154.028.331.054.528.078.15.013.32.022.501.029v.049c.071.008.147.016.227.023 1.084.073 1.075.074 1.546.217.122.065.37.128.726.184h1.369c.33.028.613.053.895.075.283.023.717.03.793.081.098.045.282.087.537.124.161.033.152.083.406.11-.009.048.081.095.265.14.062.05.062.102 0 .154l.461.129.425.125v.25l.301.051v.357c.471.086.691.184.634.282l.422.014.407.061v.086l.301.052v.445l.34.056-.31.105v.15l-.331.06c.133.078.441.152.896.216v.09l-.301.048v.178l-.294.044v.097c0 .035-.149.05-.234.075-.085.025 0 .073-.134.103-.131.03-.273.042-.225.076.032.017.021.035-.03.052-.05.017-.142.032-.264.045v.177l-.301.05v.27l.207.028a.256.256 0 0 1 .085.041v.378l-.255.04v.753l-.291.058c-.129.06-.056.123.206.178.106.016.048.057.058.08.009.025-.444.05-.216.114l.206.034-.264.039V8.5l-.282.043.528.156v.113l.31.052v.133l-.292.048v.133l-.282.046v.085l.282.05v.291c.007.007.007.013 0 .02l-.227.034v.233l.246.039v.582l-.273.047v1.08l-.292.05v.715l.292.05v.122l.264.054v.21l.291.058v.364l-.255.038v.944l.285.046v.357c-.331.027-.255.09-.501.126-.245.037.095.107-.321.136 0 .05-.076.097-.103.15l-.237.035v.226l.266.047v.178l-.284.047v.178l.303.049v.85l.246.037c.121.09 0 .187.073.28l.264.04v.853l.274.043v1.163l.312.054v.447l-.292.046v.45l-.2.029a.366.366 0 0 0-.094.04v.334l.264.039v.633l-.234.047v.227l.244.038v.36l-.265.048v.176c.246.06.439.122.577.185 0 .064.443.112.34.182.452.03.085.114.415.153.198.022.095.053.141.08.078.032.172.062.282.093v.071l-.282.047v.358l.209.032a.377.377 0 0 1 .082.04v.509l-.273.05.246.038v.188l-.255.038v.27c.16.027.266.057.312.089 0 .027.331.05.537.077.067.067 0 .133 0 .194-.555.06-.649.167-1.178.222v.134l-.303.049v.897l.218.032a.186.186 0 0 1 .074.04v.328l-.349.063.33.085v.698l.304.054v.179l-.274.046v.316l.264.037c.074.056 0 .122 0 .188l.207.03a.27.27 0 0 1 .076.041v.286l-.264.04v.582c.282.056.358.144.847.182v.14l-.856.128v.68l.243.044-.253.047v.94l.283.047v.672l-.34.055.322.102v2.085l.291.044-.255.048v.447l.31.054-.358.112.358.073-.301.097v.796l.246.037-.255.049v.267l.274.047v.223l-.292.046v.224l.282.043v.18l-.273.042.237.048v.185l-.255.039.282.047v.089l-.291.046v.084l.282.046v.404l-.255.04.246.049v1.517l.301.054v.088l-.274.047v.179l.292.05v1.163l.294.05c-.326.083-.326.176 0 .259l-.294.051v.089l.273.044c.033.016.021.033-.027.048-.051.016-.138.03-.255.041v.136l.282.048c.115.05-.234.064-.31.112l.301.074v.573l-.273.047v.402l.294.047v.088l-.294.046v.854l.255.038v.618l.303.062v.93l.301.055-.264.047v.131l.358.068-.358.071c-.094.047.179.065.264.087v.097l-.255.04.246.044-.322.072.349.07v.803l-.216.034c-.124.028.122.03.189.068v.526c0 .006-.124.023-.228.044l.246.047v.582l-.273.047v.12l.273.045c.025.016.014.033-.032.048-.044.016-.124.03-.232.041v.138l.246.038v.722c0 .006-.124.024-.237.044v.184l.255.04v.134l-.282.047v.132l-.292.048v.224l.216.033a.183.183 0 0 1 .076.04v.69l-.265.04v.979l-.291.056.252.047v.537l-.273.044c-.03.017-.023.033.025.049.049.015.134.03.248.04v.631l-.252.039v.194l.216.033c.075.012-.067.02-.113.03a1.302 1.302 0 0 1-.124.018v.45l.273.048v.088l-.282.047v1.793l-.292.047c-.124.049.207.063.322.107l-.303.082v.262l.255.038v.361l-.274.047v.088l.283.046v.268l-.283.047v.088l.292.05v.302l-.255.05c0 .037-.179.082.115.117.291.035.073.069.149.097-.103.036-.425.051-.31.097l.292.047v.447l-.34.057.312.097v.657c0 .006-.124.023-.227.045l.246.046v.313l-.274.046v.089l.283.046v1.843l-.264.04c0 .042 0 .096-.046.142l-.228.034.529.157v.477l-.274.048v.133l.283.046v.403l-.34.057.312.091v.345l-.218.042.303.074-.349.07v.13l.283.04v.186l-.255.037v.505l.255.038v.135l.282.043v.36l-.264.047v.13l-.31.05v.134l.301.047v.079l-.283.059v.171l-.282.044v.388c-.094.044-.388.06-.331.104.041.016.034.034-.014.05-.05.016-.144.03-.269.041v.137l-.303.05v.179l-.273.04v.089l-.264.055v.175c-.386.032-.301.08-.31.129l-.285.05v.166l-.301.052v.13l-.301.05v.088l-.294.048c.035.023.035.046 0 .068-.356.1-.645.201-.868.305v.162l.274.045-.283.047c-.112.046.188.063.294.097-.048.04.159.097-.264.114v.226l-.303.058v.126l-.301.054v.834l.085-.001Z"/></svg>