<svg xmlns="http://www.w3.org/2000/svg" width="540" height="74" fill="none"><path fill="#513529" d="m533.432 71.264-.498.129h-.977l-.383.046h-.635l-.372.045h-.543c-.274 0-.413.05-.796.055-.382.003-.434.074-.901.085-.266.006-.499.053-.721.084-.222.031-.424.07-.574.097h-.785l-1.305.177h-.871c-.382.026-.721.037-.912.065-.191.028-.635.011-.976.036 0 .013-.052.032-.106.063l-.806.103h-.308c-.235.06-.457.123-.7.183-.181.042-.225.097-.584.124-.362.027-.15.083-.468.11-.095.008-.085.038-.126.056l-2.463.335h-4.648l-.243.033s-.085.01-.129.01h-1.951l-.297.042-.351-.037-.349.038h-.628l-.372.047h-3.596l-.339.044c-.372.009-.86 0-1.348 0l-.233.033c-.307.026-.648 0-.987.007l-.413.042c-.416 0-.871.022-1.318-.029-.202-.023-.636-.01-.943-.012l-1.243-.171h-2.206l-.256.035h-1.326l-.423.045h-.987l-.331-.037c-.233.05-.827.026-.964.086h-.914c-.308.021-.615.045-.944.065-.328.02-.72.023-1.007.05-.287.027-.744.01-1.127.02l-.359-.043c-.124.014-.243.028-.351.043h-.657l-.638.085-.361-.037h-1.06l-.447.085h-.785l-.359.045h-.649l-.403-.05c-.276.017-.563.05-.827.047-.266-.003-.553.032-.829.04l-.264-.034h-.997c-.181.016-.331.048-.659.046-.328-.003-.256.047-.594.04l-.594-.045c-.372.015-.52.058-.85.097h-4.307l-.308.041h-6.284l-.379.046h-1.308l-.369.046h-5.635l-.287.04-.509-.046-.522.042-.519-.044-.52.052h-7.257l-.362.046h-.328l-.277-.038h-2.749l-.253.035h-.734l-.276-.038h-1.06l-.351.04h-.987l-.338-.042h-1.943l-.339-.045h-.669l-.328.044c-.184.004-.37.004-.553 0-.233-.009-.444-.035-.69-.042a24.936 24.936 0 0 0-.754 0l-.308-.041h-2.005l-.349.04h-4.617l-.361.046-.243-.032c-.233-.024-.509-.009-.765-.01l-.349.042h-.881l-.553-.049-.721.055-.519-.05h-2.271l-.489.057-.614-.063-.68.045h-.925l-.297-.04h-10.611l-.318-.042h-3.959l-.361-.045-.349.042-.297-.04c-.638-.013-1.349 0-2.049-.008l-.277-.037h-1.26l-.437-.045h-1.059l-.512-.097h-1.059l-.744-.055c-.308-.028-.349-.034-.393-.034h-8.488l-1.369-.097-.426.05h-1.889l-.53-.056-.509.057h-.318l-.276-.038h-1.731l-.403.046-1.346-.097h-1.189l-.362-.046-.338.043h-.669l-.246-.033c-.423-.031-.772 0-1.134.026a9.247 9.247 0 0 0-.256-.034l-.349.035h-1.294l-.372.046h-.987l-.318-.043c-.734-.007-1.55 0-2.366-.005l-.277-.037h-.752l-.276.037-.362-.04h-2.312l-.342.042h-2.981l-.349-.044h-.648l-.349.044h-.669l-.287-.039h-2.346l-.308.032a6.139 6.139 0 0 0-.452-.03c-.176-.007-.367-.009-.555-.007l-.362.045h-2.641c-.245-.052-.754-.044-1.062-.087-.106-.015-.413 0-.604 0l-.638.086h-3.553l-1.189.097h-1.167l-.605-.043-.509-.041-.276.037-.352-.037-.328.038-.351-.042h-1.664l-.595.083h-1.762c-.467-.04-.447-.13-.945-.171l-.7.089h-.977l-.287.038h-1.059l-.352-.036h-1.061l-.486.097c-.287-.032-.447-.057-.775-.056-.161 0-.256-.048-.605-.04l-.512.05-.56-.044-.297.033c-.341.008-.765-.01-.998.048h-.997l-.351-.045h-1.592l-.256-.034c-.297-.005-.434.058-.806.036-.369-.021-.434.041-.69.043-.253.002-.54.012-.762-.023-.096-.014-.276-.018-.403-.025l-.416.048h-.974l-.351-.044h-.998l-.287.04c-.754.016-1.581 0-2.387.008l-.276.037h-7.312l-.54-.046-.553.049H298.7l-.372.046h-1.646l-.359.044c-.075-.01-.15-.03-.235-.03-.69-.007-1.261-.078-1.974-.058l-.933-.071v-.045s-.075-.014-.116-.014h-1.687l-.328.04h-1.349l-.341-.043h-1.995l-.287.039h-2.387l-.424-.048-.72.058-.543-.048h-.605l-.348.042h-2.326l-.222-.03c-.106-.006-.202-.013-.297-.013h-1.793l-.437.052-.656-.048h-1.158l-.423-.046h-.659c-.158-.025-.455-.051-.468-.08 0-.056-.359-.07-.605-.11l-.71.047h-.871l-.338-.035h-1.359l-.287.038h-4.615l-.392.046h-1.315l-.342-.043h-.997l-.232.032c-.096 0-.202.012-.298.012h-1.475l-.372-.043-.276.038h-7.704l-.286-.038h-1.008l-.34.042h-.987l-.35-.044-.287.04c-.424.016-.912 0-1.347.007l-.319-.044-.361.038h-2.016c-.159-.006-.265-.058-.636-.04l-.351.043h-1.634l-.361.044-.307-.041c-.404-.009-.892 0-1.338 0l-.307.041-.361-.037h-.658l-.35.04h-4.945l-.361.045-.35-.044c-.456-.012-.701.079-1.369.033l-.425-.038-.562.045h-7.301l-.286-.038-.351.043h-3.968l-.361.03c-.361.016-.499-.024-.69-.043h-.902l-.552.052-.541-.045-.318.037h-1.242l-.531.056-.519-.053h-.648l-.435.051-.583-.044-.319.034h-1.974l-.339-.041h-.319l-.36.045h-2.324l-.244-.032c-.234-.024-.51-.01-.775-.01l-.265.038h-3.884l-.616.053-.711-.054-.52.05h-1.613l-.35-.044h-1.984l-.244.031c-.087.007-.19.01-.298.012h-2.122l-.467-.052-.573.044-.318-.034h-5.306l-.34.041h-2.313l-.244-.03c-.096 0-.191-.013-.286-.013h-3.47l-.245.032a7.467 7.467 0 0 1-.297.011h-2.78l-.297-.04h-2.048l-.276.037-.34-.037-.403.037c-.382.01-.446-.03-.626-.04h-2.324l-.276.037h-.753l-.255-.034h-1.539l-.626-.057-.562.05h-2.239l-.372.047h-.647l-.372-.046h-9.614l-.286-.038h-1.412l-.435.047-.605-.05h-2.26c-.191.01-.297.06-.658.042l-.35-.045h-.987l-.34.045c-.371.017-.477-.032-.806-.049l-.541.04-.297-.032-.35.04h-.977l-.679-.087c-.371-.018-.477.032-.721.043h-.849l-.563.05-.711-.055-.52.05h-.934l-.361.044h-.997l-.233-.032c-.308-.023-.637-.007-1.062-.012-.318-.025-.657-.07-1.23-.025a2.877 2.877 0 0 1-.16.022l-.339-.038-.35.04h-1.306l-.329.051H127.5l-.435.052-.626-.046-.255.035h-1.39l-.499-.105-.732.105h-3.342l-.34.044-.34-.036h-2.377l-.286.038h-2.271l-.371.047h-.69l-.414-.052-.637.04-.329-.033h-2.281l-.319-.042h-2.95l-.403-.048c-.191 0-.435.008-.616 0-.18-.008-.381-.043-.7-.047-.318-.005-.393-.049-.668-.086h-1.592l-.403.043c-.552.039-.987-.073-1.751-.027l-.234.028h-.69l-.488-.076v-.173c-.095-.011-.138-.018-.18-.019a18.07 18.07 0 0 0-.36 0l-.213-.082-1.146-.007c0-.022-.064-.043-.117-.07-.053-.029-.456-.01-.711-.017-.085.008-.223.015-.233.026-.168.096-.624.185-1.316.259v.115l-.881.007-.456.097c-.446-.065-1.136-.054-1.295-.138a.263.263 0 0 1 .085-.04c.061-.011.14-.022.233-.031-.414-.092-1.283-.09-1.878-.165l-.615.107-.7-.05c-.139 0-.181.035-.415.051 0 .031-.02.067-.063.108-.148.007-.3.013-.457.017-.104.048-.342.093-.69.13h-.753l-.201-.084c-.075-.021-.393 0-.627-.006-.182-.01-.35-.023-.498-.038l-.266.036h-.732l-.552-.097-.36.049h-1.062l-.159.134h-1.241c0-.04-.085-.082-.17-.16l-.541.119h-1.475c-.34.026-.16.067-.234.122l-.679.057h-.16c-.285-.045-.073-.097-.126-.15-.054-.052-.605-.05-.276-.113h-1.284l-.382.087h-.881l-.34-.044h-4.987l-.244.032c-.245.022-.51.01-.775.009l-.615-.084-.361.04h-.648l-.35-.043h-.976l-.36-.043-.234.032s-.085.01-.128.01h-1.591l-.446.05-.711-.047v.113c-.287.04-.605 0-.934.03 0-.074 0-.124-.064-.172-.37-.04-.774 0-1.06-.023l-.394.05h-.647c-.276.03-.106.07-.148.097l-.467.087-.361-.048h-1.061l-.456-.097h-1.22c-.627.07-1.529.076-1.964.178-.541-.022-.891.043-1.37.046-.667.102-1.251.02-1.814-.021-.338-.033-.623-.07-.848-.11h-.468c-.117.002-.23.006-.339.011v.105c-.223.036-.53.006-.753.021l-.817-.104c-.245.032-.467.063-.743.097-.382 0-.5-.06-.828-.09l-.913.12v.077c-.138.034-.34.035-.562.022-.132-.049-.167-.1-.106-.15-.276-.04-.595-.021-.945-.012 0 .019 0 .04-.095.063-.308.042-.732 0-1.061.023l-.414-.05h-2.6c-.329.032-.52.09-1.061.096-.202 0-.5.086-.796.178 0 .012-.096.024-.138.037l-1.157.007c0 .059 0 .109-.053.157-.254.034-.552.01-.806.018l-.361-.046h-1.953l-.286-.038h-.902l-.616-.057-.54.045-.32-.037H26.53l-.371-.046h-.775l-.647-.09h-.329l-.955-.13h-.626a2.063 2.063 0 0 0-.191-.076c-.223-.033-.52 0-1.061-.041l-2.123-.15h-.796c-.286-.015-.382-.07-.732-.043l-.488-.128.626-.044v-.08c-.201-.038-.498-.016-.764-.022-.074-.008-.19-.014-.244-.025-.462-.09-.8-.184-1.008-.281a4.494 4.494 0 0 0-.647-.187v-.09c-.3-.06-.506-.123-.616-.188 0-.065-.424-.097-.414-.16-.042-.053-.217-.104-.51-.149-.254-.048.118-.126-.445-.155.075-.06-.477-.097-.36-.161 0-.026-.223-.061-.298-.097-.074-.036 0-.06-.17-.08-.17-.02-.18-.052-.17-.081.05-.042-.05-.084-.286-.12-.148-.02-.074-.07-.138-.103a2.171 2.171 0 0 0-.233-.033v-.134a1.81 1.81 0 0 1-.223-.034 5.577 5.577 0 0 0-.7-.185c-.064-.02-.093-.042-.085-.063 0-.014 0-.034-.053-.041a4.034 4.034 0 0 1-.658-.142c-.296-.05-.414-.106-.34-.162-.393-.031-.414-.096-.637-.144-.339-.067-.46-.142-.35-.215l-.318-.043v-.174l-.34-.054v-.084l-.34-.05v-.133c-.466-.06-.498-.155-.944-.217-.104-.088-.344-.175-.71-.258v-.154l-.34-.05v-.225l-.202-.025c-.074-.01-.138-.016-.138-.022v-.311l-.308-.042v-.269l-.329-.043v-.263l-.34-.056v-.127l-.339-.053v-.175l-.35-.046v-.223l-.318-.042c-.075-.084 0-.18 0-.275l-.319-.042v-.359l-.36-.047v-.273l-.35-.047v-.224l-.245-.04v-.94l-.34-.05v-.088l.32-.047c.137-.05-.245-.063-.351-.108l.329-.16V63.11l-.287-.038v-.13l.308-.047v-.67c-.382-.033-.318-.103-.637-.145-.106-.014 0-.056 0-.082l.298-.04v-.542l-.266-.046v-1.22l.287-.04v-.31l.34-.051v-.582l-.372-.054.106-.033c.212-.042.265-.048.265-.055.011-.014.011-.03 0-.044v-.56a.017.017 0 0 1 0-.022l.276-.037-.286-.049v-.345l-.425-.08.404-.074v-.128l-.319-.047.244-.034c.09-.048.09-.097 0-.146l-.265-.046.286-.038v-.4c-.19-.046-.392-.098-.647-.153v-.291l.626-.155v-.402l-.286-.039v-.224l-.35-.043V54.63l-.319-.04v-.27l.319-.047v-.717l.328-.046v-.089l-.307-.046v-1.078l.286-.038v-.233l-.286-.038v-.27l.307-.047v-.13l.414-.07-.392-.072v-.089l.276-.038v-.097l-.255-.036v-.419l.276-.037v-.361l-.297-.046v-.042l.329-.049v-.178l-.244-.032a.224.224 0 0 1-.085-.04v-.467c.095-.014.18-.025.297-.04v-.763l-.34-.071.35-.076v-.08l-.297-.046.308-.047v-.224l-.244-.033c-.098-.034-.116-.07-.053-.105l.276-.036v-.587c0-.007-.149-.023-.265-.045v-.14l.286-.038v-.49l-.318-.046v-.089l.318-.047-.233-.032c-.045-.013-.073-.026-.085-.04v-.375l.297-.041V45.8c-.412-.07-.63-.148-.637-.227l.33-.049V44.36l-.224-.028a.33.33 0 0 1-.095-.04V44l.297-.04v-.369l-.265-.036.286-.048v-.176l-.647-.152v-.216l.244-.031c.11-.05.135-.1.074-.15l-.329-.035v-.502l.35-.058-.35-.078v-1.033l.276-.038-.318-.048v-.401l-.276-.051.276-.038v-.9c0-.008-.128-.024-.255-.047v-.097l.276-.038v-.18l-.297-.047v-.043c0-.015.212-.032.329-.047v-.627l-.382-.057.35-.097v-.11l-.34-.07.35-.077v-.798l-.307-.048v-.22l-.34-.047v-.088l.34-.051v-.266l.286-.038v-.14l-.276-.036v-.177l-.34-.054v-.084l-.339-.05.33-.048v-.132l.625-.085v-.18c-.405-.067-.624-.143-.636-.22l-.319-.048c-.036-.016-.025-.033.033-.05.057-.015.16-.03.296-.04v-.09l.308-.046v-.272c-.382-.027-.265-.077-.329-.119-.09-.03-.218-.06-.382-.087l.382-.06v-.22l.669-.097v-.267c-.117-.02-.33-.04-.308-.053.17-.083-.626-.142-.287-.226l.297-.039v-.18l.308-.046v-.09l-.647-.091v-.27c.095-.013.212-.021.244-.034.127-.052 0-.115.414-.156v-.257l-.319-.043v-.36l.308-.047v-.13l.34-.05v-.179l.297-.039v-.097l.276-.035v-.486l.329-.058v-.184l-.287-.039v-.175l-.34-.052v-.038l.319-.047v-.137l-.308-.046V29.9c.52-.034.563-.119.966-.172v-.22l.34-.05v-.453l-.552-.026c0-.005-.096-.01-.096-.016v-.357l.244-.033a.369.369 0 0 0 .085-.018v-.453c0-.014.287-.01.467-.017l.467-.121v-.254l-.297-.047v-.084l-.34-.05v-.226l.626-.08v-.238l-.604-.081c-.032-.02-.032-.041 0-.061.17-.058.392-.114.647-.189v-.157l-.319-.046v-.088l.35-.054c0-.02-.095-.04-.148-.06l-.382.045-.488-.065v-.09l.329-.047v-.088l-.33-.047c-.126-.05.245-.064.309-.088v-.097l-.287-.038v-.326l.976-.097v-.342l.245-.033c.111-.05.133-.1.063-.15l-.276-.036v-.137l.244-.042c0-.037.223-.081-.159-.116l-.223.084H3.13c-.063-.008-.137-.013-.137-.02v-.662l-.34-.051.233-.031a.207.207 0 0 0 .085-.04v-.376l-.647-.087.297-.049v-.357l-.308-.046v-.133l.33-.05v-.071l.54-.125.51-.015-.36-.08.36-.074v-.388l.35-.05c.117-.045-.19-.064-.34-.098v-.131l-.594-.076c-.201-.04.223-.113-.414-.131l.34-.056-.34-.05a.897.897 0 0 1 .149-.056c.064-.018.17-.034.265-.054l-.371-.07v-.096l.446-.02.477-.123v-.171l-.647-.059v-.339l-.595-.08c-.222-.06.096-.104.234-.157.138-.052-.074-.105.446-.125l-.754-.189v-.122l.308-.04v-.143l.647-.087v-.27l.308-.041v-.27l-.308-.047v-.042c-.448-.02-.799-.055-.987-.097-.116-.047.202-.066.319-.097-.064-.065-.595-.112-.244-.19.35.017.679.064 1.167.025l.085-.05-.68-.096c.022-.076.24-.15.637-.217v-.15l-1.06-.118.413-.12v-.154l.297-.04c.095-.04.062-.083-.095-.122-.364-.059-.54-.126-.51-.194a7.8 7.8 0 0 0 .998-.097v-.128l.35-.052v-.22l.255-.034c.276-.07-.17-.121-.297-.18-.128-.058-.605-.072-.977-.096v-.09l-.329-.046c-.127-.05.244-.064.35-.106l-.35-.118.807-.078-.711-.103v-.136l.276-.037-.34-.072.361-.076v-.08l-.297-.046.626-.09c.117-.05-.202-.068-.308-.097 0-.07.425-.085.647-.13v-.085l.35-.052-.87-.11a.455.455 0 0 1-.095-.027v-.43l.308-.052c.027-.02.027-.039 0-.058-.128-.05-.308-.097-.478-.145l-.34.046a6.706 6.706 0 0 1-.413-.057 3.72 3.72 0 0 1-.414-.134c-.025-.023-.025-.046 0-.069l.499-.014c.34-.043.053-.073-.191-.106v-.223c.371-.033.276-.107.658-.141v-.222l.307-.041v-.36l.319-.043v-.277l-.276-.038v-.172c-.233-.034-.388-.073-.457-.113l-.488-.018c-.244-.03 0-.071-.127-.102l.329-.045v-.087c0-.027.255-.053.382-.077l-.371-.064v-.453l.286-.038-.308-.048v-.178l.319-.046v-.18l-.297-.04v-.096l-.213-.041v-.448l-.647-.087c-.08-.052-.055-.105.074-.157l.457.032c.233-.047 0-.097.095-.134L.743 9.384V9.28L.074 9.12v-.216l.276-.038c.128-.089 0-.185.074-.28l.298-.039V7.87c.403-.04.806-.006 1.135-.025l.68.091.742.006.382-.08c-.36-.063-1.061-.071-1.475-.147-.987-.02-1.061-.146-1.592-.245l.86-.069h.435l.36.043c0-.015.107-.027.139-.04.159-.057-.223-.092-.34-.138-.151-.07-.478-.137-.955-.194v-.143l.287-.04v-.13l.34-.051v-.308l-.234-.039c-.108-.048-.14-.098-.096-.147l-.233-.032a.261.261 0 0 1-.096-.04v-.194l.297-.04v-.263l.372-.065v-.847l.307-.042v-.624l.35-.052v-.176l.67-.097v-.154l.498-.13c.16-.043.562-.034.796-.063a.019.019 0 0 0 0-.02v-.175l.934-.088.753-.205v-.107c.255-.038.563-.005.828-.026.138-.06.626-.11.424-.2.234-.028.478-.058.732-.086.204-.028.331-.06.372-.092.118-.038.27-.074.456-.109h.361a3.61 3.61 0 0 0 .446-.085c.02-.02.085-.038.189-.055.104-.016.246-.031.416-.042.413-.029.838-.055 1.38-.09h.487c.51-.03.478-.112.838-.156.361-.043.637-.083.998-.132 0-.044 0-.097.053-.15l.488-.016c.52-.07-.159-.125-.19-.193l.466-.067.372.038h.933l.382.045c.244-.048.786-.035 1.062-.087h1.634l.244-.033c.308-.03.806.015 1.061-.049l1.061.076.308-.038h1.358l.202-.077c0-.004.074-.012.117-.012h1.952c.18-.021.34-.044.478-.067.054-.02.082-.042.085-.063h.86c0 .113.784.121 1.273.174h1.294l.234-.032s.084-.011.127-.011h1.624l.297-.04h1.591l.489-.05h2.26l.35-.048h1.337l.297-.04h2.972l.435-.054.626.048.35-.034h1.931l.478-.052h2.62l.277-.041h1.974l.371-.046h1.974l.244-.031c.085-.01.085-.015.117-.015h2.653l.244-.033c.085-.01.085-.011.127-.011h4.245l.329-.045h2.324l.35-.047h3.321l.319-.045h2.97l.372-.046h.648l.35.043.244-.032s.085-.01.127-.01h3.64l.265-.036h2.398l.255.034h1.412l.276-.037h2.334l.35.042h.648l.35-.043h4.69l.223.086h1.793c0 .026.085.046.138.078l.457.054.329-.037.34.043h.657l.361-.047h1.645l.308-.04h2.642l.318-.044h1.061l.33.043h10.611l.297.041h2.664l.339-.043.234.031c0 .005.085.013.127.013h3.63l.286.04h3.587l.445.046h4.245l.403.047h.977l.52-.053.594.062.605-.047.636.085h1.327l.308.042.413-.043h.966l.361-.045.286.039c.648.015 1.359 0 2.049.008l.339.038.605-.081c.339-.02.488.03.7.035.143.003.277.01.392.018.115.008.209.02.277.031h1.666l.297-.04 1.061-.007.35-.04.329.045h1.985l.308.041h1.337l.339-.042h2.982l.35.043c.361.018.467-.03.658-.042h.679l.287.038h1.39l.276-.038h.955l.446.044c.498-.006.615-.067.923-.09h1.316l.36.042.287-.04h.807c.392-.01.488-.064.859-.046l.361.042h.913l1.262-.097.489.048h2.589l.339-.036h3.364l.276.037h1.008l.35-.041h1.964l.371-.046h8.84l.912-.063c.35-.025.52-.07.839-.112.233.01.328.065.679.035l.371.105.849-.055.531.053c.36.03.711-.042 1.262-.051l.51.091h2.122l.457.048c.456-.012.594-.058.923-.092h1.623l.319-.042h2.631l1.062.081.381-.047.765.058.689-.097.658.048.51-.05h1.284l.286-.039c.425-.02.913 0 1.359-.009l.657.089h1.412l.35-.085h1.549l.52-.057.531.054h.997l.276-.038h.743l.297.04h1.327l.297.04.552-.05.87.097c0-.023.095-.042.159-.073l.35-.018.265-.02c.143-.01.291-.02.446-.028l.403.047.34-.037h1.305l.7-.09h.637c.329.04.701.096 1.062.142.604-.032.87-.103 1.273-.14h2.663l.626.084.361-.04h3.046l.34.043h.668l.605-.085h2.738l.424.048.541-.045.52.046.552-.057c.276-.013.403.03.605.046h1.326l.245-.033c.626-.05 1.061.056 1.772.03l.488.097h2.462l.35-.043h.647l.351.043h1.644l.361-.04c.276.03.435.072.849.09l.51-.048h1.273l.35.044h.658l.233-.032c.361-.027.754 0 1.062-.014l.382.044.286-.039h3.608l.807-.097c.456 0 .583.053.838.079 0 0 .085.011.138.011h1.592l.445-.05 1.274.088c.148-.013.308-.043.626-.04.159 0 .244-.048.615-.04l.425.04c.467.013 1.061-.006 1.634.006l.436.05.615-.05h4.593c.181.007.267.062.745.028l.253-.03h3.971l.413-.053.721.046h4.245l.254-.035h1.242c.489-.054 1.147-.063 1.411-.136.382-.02.519.024.754.043h.944l.351.041h2.664l.287-.038h1.007c.158-.025.468-.05.489-.077 0-.055.338-.073.529-.106h.987l.383.047.222-.085.765-.012c.297-.038.503-.082.604-.127h.68l.338.04.352-.043h.645l.246-.032c.095 0 .191-.012.297-.012h1.708c.338.03.692.057 1.062.082.318.022.785-.011 1.062.05h.953c.724.074 1.168.167 1.264.266.764-.011 1.315.086 2.015.05.287.01.393.062.765.045l.351-.044h.974l.362-.044.232.032c.362.026.744 0 1.148.017l.136-.078.393-.023c.447.087 1.295.097 1.711.188l.625-.084.71.047c.202-.04.383-.077.499-.097h.84l.349.045c.7.009.71-.082 1.062-.15.085.087 0 .154.051.219l.488.065h.998l.754-.097.626.047.235-.03 1.155.08c.457.004.914.004 1.369 0-.147-.039-.243-.068-.362-.096l.478-.07c.341.01.458.054.724.08l.403-.047.168.13.511.012.158-.125c.53-.045.625.036.935.049V.57l.879.061.935-.175.636.086h1.4l.287-.038.361.044.308-.09h.362l.615.084.348-.038.352.04h1.294c.109-.048.354-.094.711-.13.333.035.54.08.594.127h4.658c.595-.055 1.445-.082 1.615-.207.243-.024.52-.01.817-.01a.618.618 0 0 0 .212.076.965.965 0 0 1 .199.039c.036.014.041.029.013.043.204.007.397.016.573.028.171.018.308.043.594.033l.68-.086.232.032c.106 0 .202.011.298.011h4.764l.457-.052.636.05h.912l.341-.04h.659l.338.041h.977l.382.049c.755-.033 1.349-.091 1.664-.162l.16-.075.383.047.349-.044c.457-.011.702.079 1.201.045.318.022.605.054 1.059.046.458-.003.915-.003 1.37 0l.351.038.551-.045.519.052h.945l.362.044.274-.038.426-.006h.551l.436-.045h9.987c.129-.066.454-.129.943-.18h1.325l.32-.042c.401-.004.807-.004 1.21 0 .217.016.449.03.689.043.504.023.977.052 1.401.085.085.01.15.022.191.034.018.016.018.033 0 .049l.488.017.318.04h3.641l.338.043c.362.014.499-.027.775-.05l.69.053h7.185l.308.041h3.958l.37.046.351-.043h.977l.382.046h1.633l.287.04.351-.037.349.038h3.927l.383.047h2.971l.369.046h2.961l.352.04.349-.037.286.038.341-.038.349.04h2.654l.201.03c.383.028.775.009 1.135.018l.235.032c.372.024.751 0 1.059.012l.32-.042.359.038h3.948l1.127-.087h2.886l.191.027c.072.01.116.017.158.017h3.968l.308.042h1.963l.499.056.563-.047.329.037h3.947c.256.052.807.04 1.062.09h4.532l1.23-.089h3.852l.308-.042h9.549c.297-.014.393-.068.861-.034l.256.031h.645l.352-.042h13.624l.287.038h2.728l.277-.037.359.04h7.629l.352-.042h16.213l1.137.09h.785c.499.039 1.124.052 1.4.134.553-.026.902.042 1.349.047l.38-.046.235.03c.359.027.742 0 1.145.018 0-.023.095-.046.139-.07.54-.033.964-.08 1.22-.134l.594.058c.233-.05.775-.038 1.062-.086.434.004.69-.077 1.188-.045l1.168-.088h1.548l.372-.046h4.31l.359.046h.659c.232.057.656.038 1.059.05 0 .017.075.037.129.067.052.03.455.007.7.018.243.01.349.038.53.04.16.003.305.011.419.022.111.01.183.025.209.04.106.063.581.096.69.14.119.044.33.086.625.123.307.044.625.085.816.11 1.062.052 1.411.17 2.124.24h.605l.369.046h1.985c.173.028.372.054.594.078.168.013.359.022.563.029v.049c.08.008.166.016.256.023 1.219.073 1.209.074 1.739.217.137.065.416.128.816.184h1.54c.372.028.69.053 1.008.075.318.023.806.03.891.081.111.045.318.087.605.124.181.033.17.083.457.11-.01.048.091.095.297.14.07.05.07.102 0 .154l.52.129.478.125v.25l.338.051v.357c.53.086.778.184.713.282l.476.014.457.061v.086l.338.052v.445l.383.056-.349.105v.15l-.372.06c.15.078.496.152 1.007.216v.09l-.338.048v.178l-.331.044v.097c0 .035-.168.05-.263.075-.096.025 0 .073-.15.103-.147.03-.308.042-.253.076.036.017.023.035-.034.052-.057.017-.16.032-.297.045v.177l-.339.05v.27l.233.028a.297.297 0 0 1 .096.041v.378l-.287.04v.753l-.328.058c-.145.06-.062.123.232.178.119.016.054.057.065.08.01.025-.499.05-.243.114l.232.034-.297.039V8.5l-.317.043.594.156v.113l.349.052v.133l-.329.048v.133l-.317.046v.085l.317.05v.291c.008.007.008.013 0 .02l-.255.034v.233l.276.039v.582l-.307.047v1.08l-.328.05v.715l.328.05v.122l.297.054v.21l.328.058v.364l-.287.038v.944l.321.046v.357c-.372.027-.287.09-.564.126-.276.037.106.107-.361.136 0 .05-.086.097-.117.15l-.266.035v.226l.3.047v.178l-.32.047v.178l.341.049v.85l.276.037c.137.09 0 .187.083.28l.297.04v.853l.307.043v1.163l.352.054v.447l-.328.046v.45l-.225.029a.421.421 0 0 0-.106.04v.334l.297.039v.633l-.264.047v.227l.274.038v.36l-.297.048v.176c.277.06.494.122.649.185 0 .064.498.112.382.182.509.03.096.114.468.153.222.022.106.053.157.08.088.032.194.062.318.093v.071l-.318.047v.358l.235.032a.47.47 0 0 1 .094.04v.509l-.308.05.276.038v.188l-.286.038v.27c.181.027.299.057.351.089 0 .027.372.05.605.077.075.067 0 .133 0 .194-.626.06-.732.167-1.326.222v.134l-.341.049v.897l.246.032a.21.21 0 0 1 .082.04v.328l-.392.063.372.085v.698l.341.054v.179l-.308.046v.316l.297.037c.083.056 0 .122 0 .188l.233.03a.318.318 0 0 1 .085.041v.286l-.297.04v.582c.318.056.403.144.953.182v.14l-.963.128v.68l.274.044-.285.047v.94l.318.047v.672l-.382.055.361.102v2.085l.329.044-.287.048v.447l.349.054-.403.112.403.073-.339.097v.796l.277.037-.287.049v.267l.307.047v.223l-.328.046v.224l.318.043v.18l-.308.042.267.048v.185l-.287.039.318.047v.089l-.329.046v.084l.318.046v.404l-.287.04.277.049v1.517l.338.054v.088l-.307.047v.179l.328.05v1.163l.331.05c-.367.083-.367.176 0 .259l-.331.051v.089l.308.044c.036.016.023.033-.031.048a1.79 1.79 0 0 1-.287.041v.136l.318.048c.129.05-.264.064-.349.112l.338.074v.573l-.307.047v.402l.33.047v.088l-.33.046v.854l.287.038v.618l.341.062v.93l.338.055-.297.047v.131l.403.068-.403.071c-.106.047.201.065.297.087v.097l-.287.04.277.044-.362.072.393.07v.803l-.243.034c-.14.028.137.03.212.068v.526c0 .006-.14.023-.256.044l.276.047v.582l-.307.047v.12l.307.045c.029.016.016.033-.036.048-.049.016-.139.03-.261.041v.138l.277.038v.722c0 .006-.14.024-.266.044v.184l.286.04v.134l-.317.047v.132l-.329.048v.224l.243.033a.213.213 0 0 1 .086.04v.69l-.298.04v.979l-.328.056.285.047v.537l-.308.044c-.033.017-.026.033.029.049.054.015.149.03.279.04v.631l-.285.039v.194l.243.033c.085.012-.075.02-.126.03a1.732 1.732 0 0 1-.14.018v.45l.308.048v.088l-.318.047v1.793l-.328.047c-.14.049.232.063.361.107l-.341.082v.262l.287.038v.361l-.307.047v.088l.317.046v.268l-.317.047v.088l.328.05v.302l-.287.05c0 .037-.202.082.129.117.328.035.083.069.168.097-.116.036-.478.051-.349.097l.328.047v.447l-.382.057.351.097v.657c0 .006-.139.023-.255.045l.276.046v.313l-.307.046v.089l.317.046v1.843l-.297.04c0 .042 0 .096-.051.142l-.256.034.594.157v.477l-.307.048v.133l.317.046v.403l-.382.057.351.091v.345l-.245.042.341.074-.393.07v.13l.318.04v.186l-.287.037v.505l.287.038v.135l.318.043v.36l-.297.047v.13l-.349.05v.134l.338.047v.079l-.317.059v.171l-.318.044v.388c-.106.044-.437.06-.372.104.046.016.039.034-.016.05-.057.016-.162.03-.302.041v.137l-.341.05v.179l-.308.04v.089l-.297.055v.175c-.434.032-.338.08-.348.129l-.321.05v.166l-.338.052v.13l-.339.05v.088l-.331.048c.039.023.039.046 0 .068-.4.1-.726.201-.976.305v.162l.307.045-.317.047c-.127.046.211.063.33.097-.054.04.179.097-.297.114v.226l-.341.058v.126l-.338.054v.834l.095-.001Z"/></svg>