<svg xmlns="http://www.w3.org/2000/svg" width="291" height="65" fill="none"><g fill="#00448A" clip-path="url(#a)"><path fill-rule="evenodd" d="M101.014 32.301c0 16.288-12.854 29.534-28.66 29.534-15.807 0-28.487-13.245-28.487-29.534 0-16.288 12.776-29.156 28.467-29.156 8.646 0 16.52 3.819 22.118 10.76 4.284 5.37 6.542 11.734 6.542 18.396h.02ZM96.44 12.214C90.34 4.657 81.772.5 72.353.5 55.234.5 41.3 14.76 41.3 32.301c0 17.541 13.934 32.18 31.053 32.18 17.12 0 31.228-14.44 31.228-32.18 0-7.279-2.471-14.22-7.141-20.087Z" clip-rule="evenodd"/><path fill-rule="evenodd" d="M72.238 1.833v61.334h.212V1.833h-.212Z" clip-rule="evenodd"/><path fill-rule="evenodd" d="M72.43 63.128c-.154-.279-14.59-28.162 0-61.256l-.193-.08c-3.377 7.658-5.48 15.653-6.253 23.767a75.473 75.473 0 0 0 .695 19.55c1.834 11.038 5.52 18.058 5.558 18.138l.174-.1.02-.02Z" clip-rule="evenodd"/><path fill-rule="evenodd" d="M72.257 1.872c14.784 33.094.154 60.977 0 61.256l.174.1s3.783-7.1 5.635-18.139c1.081-6.483 1.332-13.066.695-19.55-.772-8.114-2.914-16.11-6.33-23.766l-.193.08.02.02Z" clip-rule="evenodd"/><path fill-rule="evenodd" d="M72.411 63.088c-.27-.298-26.807-30.39 0-61.196l-.154-.14c-6.215 7.14-10.075 14.818-11.484 22.813-1.138 6.404-.694 13.026 1.274 19.669C65.405 55.55 72.2 63.148 72.257 63.227l.154-.14Z" clip-rule="evenodd"/><path fill-rule="evenodd" d="M72.257 1.892c26.807 30.807.27 60.898 0 61.196l.154.14s6.852-7.678 10.21-18.994c1.969-6.663 2.412-13.265 1.274-19.67-1.41-7.994-5.288-15.671-11.484-22.811l-.154.14Z" clip-rule="evenodd"/><path fill-rule="evenodd" d="M72.392 63.068c-5.288-3.102-9.727-8.015-12.854-14.18-3.05-6.006-4.612-12.908-4.38-19.43.192-5.669 1.717-11.059 4.4-15.573 2.991-5.032 7.372-8.99 13.027-11.794l-.096-.199c-5.675 2.824-10.075 6.822-13.105 11.873-2.721 4.555-4.246 9.964-4.44 15.672-.211 6.563 1.352 13.484 4.401 19.53 3.146 6.205 7.624 11.138 12.931 14.26l.097-.179.019.02Z" clip-rule="evenodd"/><path fill-rule="evenodd" d="M72.392 63.267c5.365-3.123 9.862-8.055 13.047-14.26 3.088-6.026 4.67-12.967 4.477-19.51-.173-5.708-1.698-11.137-4.42-15.672-3.01-5.071-7.43-9.069-13.104-11.893l-.097.199c5.636 2.804 10.017 6.782 13.028 11.813 2.702 4.515 4.207 9.905 4.38 15.573.213 6.523-1.37 13.424-4.438 19.41-3.165 6.186-7.643 11.078-12.97 14.18l.097.18v-.02Z" clip-rule="evenodd"/><path fill-rule="evenodd" d="M72.373 63.068c-3.34-.935-6.505-2.486-9.419-4.594-2.779-2.009-5.23-4.495-7.334-7.379-4.15-5.707-6.504-12.628-6.639-19.43-.135-6.384 1.698-12.37 5.269-17.343 4.053-5.628 10.132-9.805 18.103-12.39l-.058-.199c-8.01 2.605-14.146 6.802-18.219 12.47-3.59 5.012-5.423 11.038-5.307 17.462.135 6.861 2.509 13.802 6.678 19.57 2.103 2.903 4.574 5.39 7.372 7.418 2.914 2.128 6.099 3.68 9.476 4.614l.058-.199h.02Z" clip-rule="evenodd"/><path fill-rule="evenodd" d="M72.373 63.267c3.358-.935 6.542-2.486 9.457-4.594a34.144 34.144 0 0 0 7.372-7.379c4.17-5.727 6.543-12.629 6.697-19.47.135-6.424-1.679-12.47-5.288-17.502-4.072-5.688-10.21-9.924-18.238-12.57l-.058.2c7.99 2.645 14.089 6.861 18.142 12.51 3.57 4.991 5.385 10.998 5.25 17.382-.155 6.801-2.51 13.663-6.66 19.35a33.268 33.268 0 0 1-7.314 7.34c-2.895 2.088-6.06 3.64-9.399 4.574l.058.199-.02-.04Z" clip-rule="evenodd"/><path fill-rule="evenodd" d="M102.288 32.202H42.574v.199h59.714v-.2ZM100.261 43.438H44.6v.22h55.661v-.22ZM100.261 21.144H44.6v.219h55.661v-.22ZM92.676 9.907H52.185v.219h40.491v-.219ZM92.87 54.476H51.817v.22H92.87v-.22ZM76.773 62.412c-.733 0-1.486.199-2.22.199h-4.438c-3.513.199-7.218.199-9.978-2.665 0-.378.366-.378.366-.378h.734c0-.955.193-.557.193-.557s1.486.557 1.66.179c2.393-2.665 2.953-1.532 2.953-1.532l.733.756c.193.378.193.577.367.756.193 0 1.66-.378 1.852-.955.193-.378 1.486-.378 1.66-.755.193-.577.56 0 1.293-.18.367 0 .734-.576 1.1-.755.367 0 .734.378.734.199.193-.2 2.22 1.332 3.705.954.367-.198 1.486.756 2.027.577 1.853-.577 3.146-.199 4.806-.577.56 0 .733.577.926.955 0 .378 0 .577-.193.577-.927.755-1.853 1.332-3.146 1.531-.193 0-.367.577-.367.577-1.486.577-3.146.955-4.805 1.153l.038-.06ZM59.037 23.352c0-.2-.193-.378-.193-.577.733.199.926 1.153 1.1 1.909-.367-.199-.734 0-.927-1.332h.02Z" clip-rule="evenodd"/><path d="M98.37 46.68c-.155-.696-.54-.815-.773-.835-.212-.02-.54.06-.79.497-.425.358-.387.875-.348 1.213 0 .1.02.239.02.358v.299l.211.198c.29.24.54.319.734.319.193 0 .366-.08.463-.14.579-.377.598-1.352.463-1.909h.02ZM95.764 48.67c-.444.118-.83.556-1.254 1.053-.136.14-.27.299-.406.438l-.135.218c-.27.736.097 1.035.251 1.114.097.06.193.08.29.08.83 0 1.968-1.492 2.2-1.83.116-.179.502-.696.096-1.114-.347-.378-.772-.139-1.042.06v-.02ZM92.386 49.047c-.289-.12-.578-.1-.79.08-.348.218-.503.596-.406 1.034.096.437.482.895.926.895h.097l1.061-.378v-.458c0-.517-.579-1.034-.907-1.173h.02ZM90.823 36.935h.792l-.425-1.67c-.25-.518-.733-.637-1.467-.358h-.058c.27-.339.174-.756.116-1.015 0-.06-.038-.159-.038-.219.193-.437.154-.795.077-1.034-.213-.636-.83-.935-1.12-1.094l-.27-.06c-.907 0-.984.637-.984.816l.038.199c.097.338.136.676.174.994.058.637.174 1.71 1.332 1.71.058 0 .077-.02.135-.02v.359c0 .935 1.39 1.392 1.718 1.392h-.02ZM93.873 34.727c.096.22.212.438.212.637 0 .815 1.023 1.452 1.428 1.571l.54.12.232-.418a.632.632 0 0 0 .077-.478c.174-.278.29-.596.155-.934a.894.894 0 0 0-.27-.378.802.802 0 0 0 0-.477.864.864 0 0 0-.58-.557c-.057-.04-.192-.22-.25-.319-.174-.258-.425-.636-.869-.636-.193 0-.482.08-.637.338-.52.537-.193 1.174-.019 1.532h-.02ZM91.885 35.861a.899.899 0 0 0-.251.656c0 .398.231.776.444.995l.598.616.386-.775c.444-.895.444-1.134.444-1.233v-.875l-1.351.457-.232.16h-.038ZM92.425 31.864c-.154.159-.444.576.058 1.233l.367-.14.772.12c.097-.299.212-.716.212-.955v-1.014l-1.254.636-.155.12Z"/><path d="M93.294 28.96V28.7c0-.318-.174-.537-.367-.736v-1.352l-1.042 1.074a.888.888 0 0 0-.212.398h-.907l-.174.179c-.386.378-.27.895-.193 1.213v.636h.617c.521 0 .772-.517.888-.934.058.06.097.159.155.199v.04s-.078 0-.135.059c0 .378-.367.756-.734.756 0 .576-.193.954-.367 1.531-.193.199-.56-.378-.56.756 0 1.332 2.413 2.287 1.66 1.91.927-1.532.367-.2.194-2.288.096-.199.038-.438-.02-.716l1.564-.815v-.398c0-.318-.194-.835-.56-1.074l.174-.18h.019Zm-1.351 1.63s.096-.079.135-.139v.836c-.058-.219-.135-.458-.135-.696Zm.502-.377h.154v.06s-.135-.04-.154-.06Zm.308-1.65-.25-.26v-.06c.212 0 .328.14.347.12 0 .02 0 .12-.097.2ZM86.269 29.258v-1.511l-1.429 1.452c-.405.417-.27.974.367 1.65l.174.18h.579l.193-.24c.25-.298.212-.695.135-1.352 0-.08-.02-.159-.02-.199v.02ZM91.132 17.305h.618c.154 0 .27-.04.386-.099-.02.239 0 .477.038.636v.12c-.058.06-.135.139-.25.199l-.059.04-.154-.16-.347.895a7.498 7.498 0 0 0-.29.816l-.328.437.56.577.463-.477.29.218c.366-.497.52-.914.501-1.253 0 0 .039-.02.058-.04l.367-.258a.79.79 0 0 0 .405-.636c.116-.318.155-.756.058-1.333l-.135-.855-.753.378-.038.04v-.796c0-.537-.27-.815-.792-.815h-.617v2.406l.02-.04Zm.618-1.272v.119s-.116-.04-.174-.08c.058-.02.116-.04.174-.04ZM94.896 45.268s.733-1.153.733-1.91c0-.377.193-2.286.193-2.286v-1.71c0-.955 0-2.288-.56-1.532-.366.378 0 1.531-.56 1.71-.192 0-.733-1.332-.733-1.332s0-.378-.193-.199c-.733.378-1.853 1.91-2.412 2.665-.367.378-.927.756-1.1 1.333-.367 0-.193.576-.367.755-.367.756-.193 1.532-.734 2.088 0 .378-.192 1.134.367 1.333.367 0 .734 0 1.1-.199.193 0 .56-.378.734-.378.733.378 1.12 2.466 1.12 2.466s.366.577.559.378c.193-.199.926-1.332.56-1.531.56-.577 1.293-1.71 1.293-1.71v.06ZM79.552 38.785c-.927 1.332-1.66 3.241-.56 4.773.367-.577 0-1.532.734-1.91.56-.377.366-3.42-.193-2.863h.019Z"/><path d="M88.97 30.969s.676.159-.443-1.73c-.058 0-.097-.04-.097-.18.039.06.058.12.097.18.154.02.444-.28.56-.498-.29-.06-.541-.06-.29-.06.347-.218.386-.119.29.06.154.02.328.06.443.14-.193.377.367.377.367.377s.367-3.043-.56-3.241c-.193-.378.367-1.154-.56-1.71h.367c.56 0 1.486.377 1.1-.757 0-.954.927-3.42.193-3.241v-.756c-.366-.2-.56-.577-.733-1.154 0-.378-.367-.954 0-.954.193 0 .56 1.133.733.755 0-.198.56.378.56.2-.193-.577-.733-2.089-.733-2.666-.193-.576.366-1.332.193-1.909-.193-.955-.734-2.088-1.486-2.864 0-.199-.367-.199-.193-.577 0 0 0-.199.193-.199.56-.198.366.378.56.378.366.2.926 1.333 1.66 1.333-.194-.199.559-.199.366-.378-.367-.756-1.1-1.71-1.1-2.486 0-.378.173-.378.173-.577-.366-.199-.733-.199-1.1-.577-.193 0-.366-.198-.733-.377-.926-.955-1.853-1.91-3.146-2.089 0 .378 0 .577-.174.577-.56-.199-.926-.199-1.12-.199h-1.292c-.367 0-.367-.378-.367-.577h-.926c-.367-.198-.734-.755-1.1-.954-1.486-.577-1.486 1.531-2.413 1.71-.617.12-1.447.915-1.756 1.313.077.08.116.159.077.199-.25.12-.231 0-.077-.2-.309-.357-1.293-.954-.85-.178 0 .378-.192-.577-.366-.756-.733-.577-2.027.577-1.66.378.367-.199-.733 1.332-.926 1.71-.367.378-1.293.577-.927 1.333 0 0 .367.378.56.378.193-.2.193-.577.367-.2.193 1.135 0 2.865-1.293 2.666-.367 0 .193-3.043-.367-1.91 0 .379-.56.756-.56.955 0 .2-.193.756 0 .756.927 0 1.293.756.927 1.531-.367.577-.927 1.71-1.1 2.486 0 .518.328.836.54 1.015.058-.239.193-.358.193.139 0 0-.077-.06-.193-.14-.116.399-.058 1.134 1.12-.437.578 0 .578-.756.501-1.173-.038 0-.096-.06-.135-.16 0-.218.077-.079.135.16.193.06.463-.537.618-.537.367.378.56 1.153.926 1.531.116.259.656.259.888.219 0 0 0-.02.039-.04.115 0 .077.02-.039.04-.598.378.965.915 1.332.915.56.576.366.576 1.1.954.174.2 0 .378-.367.378-.926 0-1.486.2-2.393 0-.193-.199-.56-.378-.56-.756-.193-.377-.367-.755-.733-1.133h-.367c-.193 0-.733.378-.926.756-.367.377-.734.954-1.1.576-.367-.198-.734.577-.734 1.154-.193.577-.367.756-.367 1.332-.192.2 0 .756 0 .955-.192.378-.366 1.333-.733 3.42-.193.2.56 2.865.56 3.243 0 1.332.56 2.088 2.046 2.088 0 .756.347-.756.405-1.034 0 .02-.02.04-.02.08.04-.16.04-.14.02-.08a.856.856 0 0 1 .154-.299c0 .378.734 0 .734.378.173.955.173 2.287.56 2.665.366.577 0 1.532 0 2.088v2.288c0 .755.56 1.332.56 2.088 0 .577-.368 1.153-.194 1.71 0 .577 0 1.333.367 2.486.193.577.193 1.532.56 2.287.192.378-.367.577 0 1.134.192.378 1.1-.199 1.486-.955.366-.377.366-.755.56-.954.559-.955.559-2.486.733-3.421 0-.199.366-.577.56-.756.192-.577.366-.954.366-1.531s.193-1.333 0-1.91c0-.576-.56-1.133-.56-1.71 0-.378.367.378.56 0 0-.378.193-1.71.367-2.088.193-.756.56-1.71 1.1-2.287.56-.577 0-1.71.367-2.466.56-1.333-.927-1.532-1.66-2.108.733-.378 1.66.576 2.046-.378 0-.378 0-.577.193-.577.193-.199.366-.199.56-.378V23.87c-.194-.378-.194-.756 0-1.154 0-.378.733.577.733-.199 0-.378.56.378.926.756 1.12 1.531 1.293 5.15 1.293 5.15-.56.757 1.486.2.367-.576 0-.577.733 0 .193-1.531.733.199.193-1.532.733-1.333.56.2 1.486.378 1.66.756.367 1.134.367 3.242.56 4.196.193.378 1.1.955 1.1.955l-.077.08ZM65.869 34.588c0-.199-.367 0-.56-.199-.733-1.71-2.586-4.952-2.78-4.952-.192 0-.733-1.133-1.292-1.332-.193 0-1.1 0-.927.199.367.199-.56 0-.733.378-.367 0-.56 0-.926-.2-.194 1.134.366 1.91.192 2.864-.193.378-.56.756-.56 1.134-.192.378.175 1.71-.192 2.088-.193.2.367.756.367 1.134.193.756.193.955.366 1.71.174.577.56 2.486.734 2.486.173 0 0-.954.733.955.367 1.91.367 3.62.56 5.529v.756c.193 1.909 1.12 4.574 1.852 6.284 0-.179.367 0 .367-.179 0-.755-.56-2.088-.56-2.864 0-.377.193-.954.367-1.332 0-.378-.193-.955 0-1.333.193-.198.56-.576.367-.755-.193-.2.733-1.134.733-1.91 0-.179 0-.377.193-.576.367-1.154 1.12-3.242.927-3.421-.193-.199.56-.199.193-.577.56-1.71 1.293-4.196.56-5.907l.019.02ZM58.477 25.837c-.174 0-.367-.198-.56-.198v-.756c0-.378.193-1.333 0-1.333 0 .378-.367-.198-.733.577-.193.199-.367.199-.367-.199 0-.756-.193-1.531.193-2.287 0-.378.193-.179.733-.179.193 0 .56-.199.927-.199.56 0 .193.756.366.955.367.199.56-.756.56-1.154.174-.378.367-1.71.56-1.153.367 1.153.367-.955.733-1.333.193-.377.734-2.287.734-1.909 0 .378.733-.756 1.293-1.133.193 0 .56.198.733-.2.193-.377 0-.576 0-.755.367-.577.927 0 1.293-.2.193-1.332.193-2.664.367-3.997.174-.576.733-1.531.733-2.088.193-.378-.193-.199-.193-.577 0-.755-.193-1.332-.926-1.909-.367 0-.56-.199-.734 0-.192 0-.56 1.91-1.486 1.154-.193-.378-.193-.756-.366-1.154-.193-.199-.734-.378-.734-.954-1.12.198 0 1.332-.733 1.71-.367 0-.56 0-.56-.199.193-.199.193-.577.193-.756-.926-.755-2.026.756-2.026.756-.367 0-.367-.577-.367-.756-1.486.378-3.146 1.532-2.78 1.532 0 0-2.026 1.909-2.585 2.287.366 0 1.1-.378.926.199 0 .378-.926.954-.193 1.71.367-.577.56-.756 1.293-.756v-.576c.367-.378.733-.2 1.293-.2.367.2.367 1.532.193 1.333-.193-.179-.56 3.44-1.853 4.574-.193.2 0 .577 0 .756-.56 1.71-.366 3.998.193 6.086 0 .378.193.756.193 1.153.367.955.734 1.71 1.486 2.288.522.537 1.641.974 2.162 1.57-.038-.854.193-1.889.058-1.75l-.02.02Z"/><path d="M58.419 27.588c0 .377.077.735.25.915.117-.358 0-.637-.25-.915Z"/><path fill-rule="evenodd" d="M115.431 16.768h.559c2.027 0 3.513.2 4.632.756a9.941 9.941 0 0 1 2.78 2.864c.733 1.333 1.1 2.864 1.1 4.375 0 1.333-.367 2.665-.927 3.819-.733 1.134-1.66 2.088-2.779 2.665 1.486.577 2.586 1.531 3.513 2.864.926 1.332 1.293 2.864 1.293 4.952 0 1.91-.367 3.42-1.12 4.952-.733 1.532-1.852 2.486-3.146 3.043-1.293.756-2.952 1.134-5.172 1.134h-.733v-3.819h.733c1.486 0 2.413-.199 3.146-.378.926-.377 1.66-.954 2.026-1.909.56-.756.734-1.91.734-3.242 0-1.153-.174-2.088-.56-3.043-.56-.755-1.1-1.332-2.026-1.71-.734-.378-2.027-.577-3.706-.577h-.367v-3.798c1.486 0 2.394 0 2.953-.2.927-.377 1.486-.954 2.027-1.53.366-.756.733-1.711.733-2.864 0-.955-.367-1.91-.733-2.666a3.7 3.7 0 0 0-1.66-1.71c-.56-.199-1.66-.378-3.32-.378v-3.62l.02.02Zm-8.878 31.444V16.768h8.878v3.62h-5.539v9.328h5.539v3.798h-5.539v10.86h5.539v3.818h-8.878v.02ZM136.584 16.57h1.852l9.978 31.622h-3.512l-2.953-9.527h-5.365v-3.42h4.439l-2.78-8.95a49.849 49.849 0 0 1-1.659-5.907V16.57Zm-11.465 31.622 9.805-31.622h1.66v3.818-.378c-.367 2.088-.927 3.998-1.487 5.907l-2.779 9.328h4.246v3.42h-5.172l-2.779 9.527H125.1h.019ZM149.862 48.212V16.967h3.319v27.625h12.391v3.62h-15.71ZM176.843 48.212V16.967h17.003v3.62h-13.664v9.725h11.83v3.62h-11.83v14.28h-3.339ZM205.831 16.57c2.22 0 4.246.576 5.906 1.909 1.853 1.153 3.339 3.043 4.246 5.529 1.1 2.088 1.66 4.952 1.66 8.393 0 4.574-1.1 8.193-3.146 11.057-2.219 3.242-4.999 4.754-8.685 4.754V44.79c2.393 0 4.439-1.154 6.099-3.242 1.486-2.088 2.412-5.151 2.412-9.328 0-2.664-.366-4.952-1.293-6.86-.559-1.711-1.659-2.865-2.953-3.82-1.293-.954-2.586-1.53-4.246-1.53V16.57Zm-11.657 16.188c0-5.33 1.12-9.148 3.32-11.992 2.219-2.864 4.999-4.196 8.318-4.196v3.44c-2.412 0-4.439 1.134-5.925 3.242-1.66 2.088-2.412 5.151-2.412 9.526 0 3.819.733 6.663 2.412 8.771 1.66 2.287 3.686 3.242 5.925 3.242v3.42c-3.512 0-6.485-1.53-8.685-4.753-2.046-3.043-2.953-6.483-2.953-10.68v-.02ZM12.697 35.642v-3.62h10.538v11.436c-1.66 1.512-3.32 2.864-4.998 3.62-1.66.756-3.513 1.153-5.173 1.153-2.412 0-4.632-.576-6.465-1.71-1.853-1.332-3.32-3.043-4.44-5.529C1.06 38.705.5 35.842.5 32.42c0-3.241.56-6.284 1.66-8.571 1.12-2.486 2.586-4.376 4.246-5.53 1.853-1.133 3.879-1.71 6.465-1.71 1.66 0 3.32.378 4.632.955 1.293.756 2.393 1.71 3.32 3.043.926 1.153 1.486 3.043 2.026 4.952l-2.953.955c-.366-1.532-.926-2.864-1.486-3.62-.56-.955-1.486-1.531-2.412-2.088-.927-.577-2.027-.756-3.32-.756-1.853 0-3.32.378-4.632 1.332-1.293.955-2.412 2.288-3.146 4.197-.733 1.71-1.1 3.997-1.1 6.662 0 4.197.734 7.24 2.413 9.328 1.66 1.91 3.879 3.043 6.658 3.043 1.293 0 2.586-.378 3.88-.955 1.293-.576 2.412-1.332 3.145-2.287v-5.708h-7.218l.02-.02ZM25.185 48.231V16.987h3.338v27.625h12.372v3.62h-15.71ZM230.612 16.57c2.22 0 4.073.576 5.926 1.909 1.852 1.153 3.145 3.043 4.245 5.529 1.101 2.088 1.487 4.952 1.487 8.393 0 4.574-.927 8.193-2.953 11.057-2.22 3.242-5.173 4.754-8.685 4.754V44.79c2.412 0 4.439-1.154 5.925-3.242 1.66-2.088 2.412-5.151 2.412-9.328 0-2.664-.366-4.952-1.1-6.86-.733-1.711-1.66-2.865-2.953-3.82-1.293-.954-2.779-1.53-4.246-1.53V16.57h-.058Zm-11.637 16.188c0-5.33 1.119-9.148 3.319-11.992 2.22-2.864 4.999-4.196 8.318-4.196v3.44c-2.393 0-4.439 1.134-6.098 3.242-1.486 2.088-2.413 5.151-2.413 9.526 0 3.819.927 6.663 2.586 8.771 1.486 2.287 3.513 3.242 5.925 3.242v3.42c-3.705 0-6.465-1.53-8.684-4.753-2.046-3.043-2.953-6.483-2.953-10.68v-.02ZM254.081 16.967c1.293.2 2.393.378 3.146.577 1.486.577 2.779 1.532 3.879 2.864.927 1.332 1.853 2.864 2.393 4.952.56 1.91.927 4.197.927 7.04 0 3.421-.56 6.484-1.486 8.95-1.12 2.486-2.413 4.197-3.88 5.33-1.486.756-2.952 1.333-4.998 1.532v-3.819c1.293-.199 2.393-.378 3.146-.955 1.1-.755 2.026-1.909 2.586-3.42.926-2.287 1.293-4.754 1.293-7.816 0-3.063-.56-5.53-1.293-7.24-.927-1.909-2.027-3.043-3.32-3.62-.559-.377-1.293-.576-2.393-.576v-3.818.02Zm-10.345 31.245V16.967h10.345v3.819h-7.025v23.806h5.365c.56 0 1.1-.199 1.66-.199v3.819h-10.345ZM265.178 37.71l3.146-.198c.193 1.531.56 2.864 1.12 3.818a5.702 5.702 0 0 0 2.412 2.288c1.1.576 2.22.755 3.686.755 1.853 0 3.339-.378 4.439-1.332 1.101-.955 1.487-2.287 1.487-3.799 0-.954-.193-1.71-.56-2.287a3.7 3.7 0 0 0-1.66-1.71c-.733-.378-2.412-.955-4.999-1.91-2.393-.576-4.072-1.332-4.998-2.088-.927-.756-1.66-1.531-2.22-2.665-.559-1.153-.926-2.287-.926-3.44 0-2.487.733-4.575 2.412-6.106 1.486-1.532 3.706-2.486 6.292-2.486 1.853 0 3.32.378 4.806 1.153a8.623 8.623 0 0 1 3.146 3.242c.733 1.332 1.1 2.864 1.1 4.574l-2.953.378c-.193-1.91-.734-3.242-1.853-4.196-.926-.955-2.412-1.532-4.072-1.532-1.853 0-3.32.378-4.246 1.333-.927.756-1.486 1.91-1.486 3.242 0 .954.366 1.909 1.1 2.665.733.576 2.219 1.332 4.806 2.088 2.219.577 4.072 1.332 4.979 1.71 1.486.756 2.586 1.91 3.319 3.242.734 1.134 1.12 2.665 1.12 4.375 0 1.91-.367 3.421-1.12 4.953a7.924 7.924 0 0 1-3.319 3.241c-1.293.756-2.953 1.134-4.979 1.134-2.953 0-5.366-.955-7.219-2.864-1.659-1.91-2.586-4.375-2.779-7.617l.019.04ZM286.061 7.043c.733 0 1.293.756 1.293 1.532 0 .576-.367 1.133-.733 1.332l1.119 2.088h-1.119l-1.101-1.71V9.33h.193c.193 0 .541-.199.541-.576 0-.378-.174-.756-.541-.756h-.193v-.955h.56-.019Zm-.56 7.816c2.779 0 4.999-2.486 4.999-5.33s-2.22-5.33-4.999-5.33v1.134c2.22.199 3.879 1.91 3.879 4.196 0 2.287-1.659 4.197-3.879 4.197v1.133Zm0-4.574h-.926v1.71h-.927V7.043h1.853v.955h-.926V9.33h.926v.955Zm0-6.086h-.193c-2.953 0-5.172 2.287-5.172 5.33s2.219 5.33 5.172 5.33h.193v-1.133h-.193c-2.219 0-4.072-1.91-4.072-4.197s1.853-4.196 4.072-4.196h.193V4.199Z" clip-rule="evenodd"/></g><defs><clipPath id="a"><path fill="#fff" d="M.5.5h290v64H.5z"/></clipPath></defs></svg>