<svg xmlns="http://www.w3.org/2000/svg" width="221" height="105" fill="none"><path stroke="#000" d="M.5.5h219v104H.5z"/><g clip-path="url(#a)"><path fill="#EC1848" d="M220.247 0H0v104.462h220.247V0Z"/><path fill="#231F20" d="M220.247 82.568H0V105h220.247V82.568Z"/><path fill="#FFFAC7" d="M21.561 65.327v-42.43H45.69V65.33h-9.838V32.01H31.4V65.33H21.56v-.004ZM52.946 65.327v-42.43h20.75v9.107H62.784v7.394h9.34v9.108h-9.34v7.713h10.913v9.108h-20.75ZM78.073 32.004v-9.108h24.096v9.108h-7.102v33.323H85.23V32.004h-7.162.005ZM107.772 65.327v-42.43h9.108l6.14 19.555 6.14-19.556h9.108v42.435h-9.226v-16.94l.114-3.929-.784 3.579-2.562 8.296h-5.589l-2.562-8.296-.784-3.579.114 3.93v16.94h-9.226l.009-.005ZM144.892 52.262V35.934c0-9.022 4.038-13.535 12.121-13.535 8.082 0 12.121 4.513 12.121 13.535v16.328c0 9.021-4.039 13.534-12.121 13.534-8.083 0-12.121-4.513-12.121-13.534Zm9.837-.123c0 1.71.191 2.895.57 3.555.378.661.952.99 1.714.99.761 0 1.331-.328 1.714-.99.378-.66.569-1.846.569-3.555V35.91c0-1.71-.191-2.867-.569-3.483-.383-.61-.953-.916-1.714-.916-.762 0-1.331.305-1.714.916-.383.61-.57 1.773-.57 3.483v16.228ZM173.628 65.327v-9.108c2.717 0 4.112-2.193 4.189-6.578l.351-26.745h23.572v42.435h-9.837V32.01h-3.606l-.292 17.23c-.077 5.494-1.025 9.546-2.835 12.167-1.814 2.621-4.75 3.93-8.802 3.93h-2.736l-.004-.01ZM25.255 96.302c0 .87-.224 1.536-.675 1.992-.451.456-1.112.684-1.983.684h-2.22V88.85h2.147c.893 0 1.55.214 1.978.638.429.429.639 1.072.639 1.933v.27c0 .519-.105.966-.315 1.335-.21.369-.497.615-.866.738.378.105.688.36.93.761.241.402.364.898.364 1.486v.293Zm-1.167-4.736c0-.647-.123-1.103-.365-1.372-.242-.27-.67-.406-1.286-.406h-1.012v3.542h1.053c.625 0 1.049-.141 1.272-.428.224-.283.333-.73.333-1.336h.005Zm-.242 5.999c.246-.32.37-.789.37-1.418 0-.629-.124-1.098-.366-1.417-.241-.32-.688-.48-1.344-.48h-1.08v3.784h1.08c.642 0 1.09-.16 1.335-.478l.005.009ZM34.403 96.202c0 1.85-.843 2.776-2.535 2.776h-2.274V88.85h1.053v4.153h1.221c1.687 0 2.535.925 2.535 2.776v.429-.005Zm-1.053-.1v-.242c0-.693-.119-1.185-.356-1.481-.237-.292-.651-.442-1.24-.442h-1.107v4.084h1.108c.597 0 1.012-.146 1.244-.442.232-.292.346-.789.346-1.482l.005.005Zm3.159 2.872h-1.053v-10.13h1.053v10.13ZM46.169 96.202c0 1.85-.84 2.776-2.517 2.776h-2.361V88.85h4.413v.953h-3.36v3.214h1.308c1.678 0 2.517.925 2.517 2.776v.415-.005Zm-1.053-.1v-.215c0-.692-.119-1.185-.356-1.481-.237-.292-.647-.442-1.222-.442h-1.194v4.057h1.194c.588 0 .999-.146 1.231-.442.233-.292.347-.789.347-1.482v.005ZM55.131 96.13c0 1.955-.811 2.93-2.434 2.93-1.623 0-2.448-.975-2.448-2.93v-4.44c0-1.956.816-2.932 2.448-2.932 1.632 0 2.434.976 2.434 2.931v4.44ZM54.091 96v-4.198c0-.825-.122-1.381-.364-1.664-.241-.282-.583-.428-1.03-.428-.447 0-.789.141-1.03.428-.242.288-.365.839-.365 1.664v4.198c0 .835.123 1.395.365 1.678.241.283.583.428 1.03.428.447 0 .788-.14 1.03-.428.242-.283.365-.843.365-1.678ZM64.466 92.035c0 1.851-.843 2.777-2.534 2.777H60.71v4.166h-1.053V88.85h2.275c1.686 0 2.534.925 2.534 2.776v.415-.005Zm-1.053-.086v-.242c0-.693-.113-1.185-.346-1.481-.233-.296-.647-.442-1.245-.442h-1.107v4.084h1.107c.588 0 1.003-.146 1.24-.442.238-.297.356-.789.356-1.482l-.005.005ZM78.921 98.978h-1.053v-9.176h-2.803v9.176h-1.053V88.85h4.91v10.13ZM88.507 92.035c0 1.851-.843 2.777-2.534 2.777H84.75v4.166h-1.053V88.85h2.275c1.687 0 2.534.925 2.534 2.776v.415-.005Zm-1.053-.086v-.242c0-.693-.113-1.185-.346-1.481-.233-.296-.647-.442-1.245-.442h-1.107v4.084h1.108c.588 0 1.002-.146 1.24-.442.237-.297.355-.789.355-1.482l-.005.005ZM97.374 96.13c0 1.955-.811 2.93-2.434 2.93-1.623 0-2.448-.975-2.448-2.93v-4.44c0-1.956.816-2.932 2.448-2.932 1.632 0 2.434.976 2.434 2.931v4.44ZM96.335 96v-4.198c0-.825-.123-1.381-.365-1.664-.241-.282-.583-.428-1.03-.428-.447 0-.788.141-1.03.428-.242.288-.365.839-.365 1.664v4.198c0 .835.123 1.395.365 1.678.242.283.583.428 1.03.428.447 0 .789-.14 1.03-.428.242-.283.365-.843.365-1.678ZM108.443 95.094c0 1.956-.826 2.931-2.476 2.931h-.442v.953h-1.053v-.953h-.456c-1.641 0-2.461-.975-2.461-2.93V92.66c0-1.946.82-2.917 2.461-2.917h.456v-.898h1.053v.898h.442c1.65 0 2.476.97 2.476 2.917v2.434Zm-3.957 1.965v-6.345h-.456c-.447 0-.798.141-1.053.428-.255.283-.383.839-.383 1.664v2.16c0 .826.128 1.382.383 1.665.255.282.611.428 1.067.428h.442Zm2.904-2.092v-2.161c0-.825-.128-1.381-.379-1.664-.251-.282-.606-.428-1.062-.428h-.442v6.345h.442c.447 0 .798-.141 1.053-.428.255-.283.383-.84.383-1.664h.005ZM117.035 98.978h-4.28V88.85h4.253v.94h-3.2v3.6h2.662v.94h-2.662v3.715h3.227v.939-.005ZM125.783 96.188c-.028 1.915-.821 2.872-2.375 2.872-1.555 0-2.434-.975-2.434-2.93v-4.44c0-1.072.228-1.829.683-2.271.456-.442 1.04-.66 1.751-.66 1.545 0 2.338.924 2.375 2.775h-1.067c-.018-.624-.118-1.085-.305-1.381-.187-.292-.52-.442-1.003-.442-.438 0-.775.141-1.017.428-.241.288-.364.839-.364 1.664v4.198c0 .835.123 1.395.364 1.678.242.283.579.428 1.017.428.437 0 .788-.145.994-.433.205-.287.319-.784.328-1.486h1.053ZM134.649 96.188c-.027 1.915-.82 2.872-2.375 2.872-1.554 0-2.434-.975-2.434-2.93v-4.44c0-1.072.228-1.829.684-2.271.455-.442 1.039-.66 1.75-.66 1.545 0 2.339.924 2.375 2.775h-1.067c-.018-.624-.118-1.085-.305-1.381-.187-.292-.52-.442-1.003-.442-.438 0-.775.141-1.016.428-.242.288-.365.839-.365 1.664v4.198c0 .835.123 1.395.365 1.678.241.283.578.428 1.016.428.438 0 .789-.145.994-.433.205-.287.319-.784.328-1.486h1.053ZM143.966 98.978h-1.026v-6.956c0-.027.009-.2.028-.51l.027-.498-.228.611-2.831 7.358h-.98v-10.13h1.026v6.93c0 .57-.014.925-.041 1.066l.228-.683 2.83-7.312h.967v10.129-.005ZM153.384 96.13c0 1.955-.811 2.93-2.434 2.93-1.623 0-2.448-.975-2.448-2.93v-4.44c0-1.956.816-2.932 2.448-2.932 1.632 0 2.434.976 2.434 2.931v4.44ZM152.345 96v-4.198c0-.825-.119-1.381-.365-1.664-.242-.282-.588-.428-1.03-.428-.442 0-.789.141-1.03.428-.242.288-.365.839-.365 1.664v4.198c0 .835.123 1.395.365 1.678.241.283.583.428 1.03.428.447 0 .788-.14 1.03-.428.242-.283.365-.843.365-1.678ZM162.816 98.978h-1.053v-4.636h-2.804v4.636h-1.053V88.85h1.053v4.54h2.804v-4.54h1.053v10.13ZM172.434 98.978h-1.039l-.483-2.133h-2.631l-.469 2.133h-1.026l2.348-10.129h.911l2.389 10.13Zm-1.737-3.031-.228-1.04c-.159-.702-.323-1.4-.483-2.092l-.228-1.04-.187-1.011-.187 1.012-.911 4.17h2.224ZM181.368 98.978h-1.039v-9.176h-2.092l-.142 5.607c-.054 2.38-.879 3.57-2.475 3.57h-.314v-.967h.054c.588 0 1.012-.246 1.268-.739.255-.492.392-1.212.41-2.16l.155-6.26h4.166v10.13l.009-.005ZM190.791 96.13c0 1.955-.811 2.93-2.434 2.93-1.623 0-2.448-.975-2.448-2.93v-4.44c0-1.956.816-2.932 2.448-2.932 1.632 0 2.434.976 2.434 2.931v4.44ZM189.752 96v-4.198c0-.825-.119-1.381-.365-1.664-.241-.282-.588-.428-1.03-.428-.442 0-.789.141-1.03.428-.242.288-.365.839-.365 1.664v4.198c0 .835.123 1.395.365 1.678.241.283.583.428 1.03.428.447 0 .789-.14 1.03-.428.242-.283.365-.843.365-1.678ZM200.195 96.302c0 .87-.228 1.536-.675 1.992-.446.456-1.112.684-1.983.684h-2.22V88.85h2.147c.894 0 1.55.214 1.979.638.428.429.638 1.072.638 1.933v.27c0 .519-.105.966-.315 1.335-.209.369-.496.615-.866.738.379.105.689.36.93.761.242.402.365.898.365 1.486v.293Zm-1.167-4.736c0-.647-.123-1.103-.365-1.372-.241-.27-.67-.406-1.29-.406h-1.012v3.542h1.053c.625 0 1.049-.141 1.272-.428.223-.283.333-.73.333-1.336h.009Zm-.242 5.999c.247-.32.37-.789.37-1.418 0-.629-.119-1.098-.365-1.417-.242-.32-.688-.48-1.345-.48h-1.08v3.784h1.08c.648 0 1.09-.16 1.336-.478l.004.009Z"/></g><defs><clipPath id="a"><path fill="#fff" d="M0 0h220.247v105H0z"/></clipPath></defs></svg>