<svg width="65" height="57" viewBox="0 0 65 57" fill="none" xmlns="http://www.w3.org/2000/svg">
<g >
<path d="M1.69287 14.9319V55.5012H10.4935M1.69287 14.9319H10.4935M1.69287 14.9319C1.69287 14.9319 14.1426 -0.522775 19.5089 1.94551C24.8752 4.4138 34.7892 6.46609 34.7892 6.46609M10.4935 14.9319V55.5012M10.4935 14.9319H25.7338M10.4935 55.5012H22.514C22.514 55.5012 24.4601 51.1544 26.8607 51.1544C29.2613 51.1544 31.2074 55.5012 31.2074 55.5012H63.4051V34.0359C63.4051 34.0359 57.6095 31.4412 57.6095 28.2403C57.6095 25.0395 63.4051 22.4448 63.4051 22.4448V14.9319M63.4051 14.9319L34.7892 6.46609M63.4051 14.9319H25.7338M34.7892 6.46609L25.7338 14.9319" stroke="#fcd70f" stroke-width="2"/>
<circle cx="44.9224" cy="40.3378" r="4" stroke="#fcd70f" stroke-width="2"/>
<circle cx="24.0454" cy="29.3365" r="6.5" stroke="#fcd70f" stroke-width="2"/>
</g>
</svg>
